<svg width="360" height="176" viewBox="0 0 360 176" fill="none" xmlns="http://www.w3.org/2000/svg">
<g id="Group">
<mask id="mask0_5_43" style="mask-type:alpha" maskUnits="userSpaceOnUse" x="0" y="0" width="360" height="176">
<g id="b">
<path id="Vector" d="M0 0H360V176H0V0Z" fill="white"/>
</g>
</mask>
<g mask="url(#mask0_5_43)">
<path id="Vector_2" d="M0 0H360V176H0V0Z" fill="#382AE1"/>
<path id="Vector_3" d="M175.05 36.8V47.4944H176.398V50.3928H181.44V112.779L191.646 118.138V107.826H194.083V119.462L196.47 120.696V211.022L25.52 212.971V155.182H31.1304V99.616H33.1688V91.976H35.6048V99.616H46.9248L46.924 99.6272V99.784C46.916 101.442 46.8536 115.013 46.8488 125.004V127.418C46.8512 132.217 46.8712 135.714 46.924 135.774C46.9768 135.834 47.5512 135.858 48.3216 135.861H48.7216C50.4432 135.854 52.7784 135.774 52.7784 135.774V164.926H57.4072V61.1192H63.3104V55.3944H65.7464V61.12H84.2352V66.236H91.2672V55.396H93.7032V66.236H97.1544V85.2528H105.437V119.357H115.181V150.31H120.288V85.9752H126.72V76.1248H129.155V85.9744H146.849V50.4176H152.013V47.4944H172.613V36.8H175.05ZM12.6736 117.991V121.312H15.232L20.38 212.72H-6.39999L-1.24399 121.313H0.769606V117.992H12.6736V117.991Z" fill="#1E1FCD"/>
<path id="Vector_4" d="M338.25 65.6V76.2944H339.598V79.1928H344.64V141.579L354.846 146.938V136.626H357.283V148.262L359.67 149.496V239.822L188.72 241.771V183.982H194.33V128.416H196.369V120.776H198.805V128.416H210.125L210.124 128.427V128.584C210.116 130.242 210.054 143.813 210.049 153.804V156.218C210.051 161.017 210.071 164.514 210.124 164.574C210.177 164.634 210.751 164.658 211.522 164.661H211.922C213.643 164.654 215.978 164.574 215.978 164.574V193.726H220.607V89.9192H226.51V84.1944H228.946V89.9192H247.435V95.0352H254.467V84.1952H256.903V95.0352H260.354V114.052H268.637V148.156H278.381V179.11H283.488V114.774H289.92V104.925H292.355V114.774H310.049V79.2176H315.213V76.2944H335.813V65.6H338.25V65.6ZM175.874 146.791V150.112H178.432L183.58 241.519H156.8L161.956 150.112H163.97V146.791H175.874V146.791Z" fill="#1E1FCD"/>
<g id="Group_2">
<path id="Vector_5" d="M179.794 22.3152C179.677 20.6216 172.094 25.5488 172.094 25.5488C172.094 25.5488 178.518 20.6216 177.966 19.3904C177.416 18.1584 170.179 23.5472 170.179 23.5472C170.179 23.5472 176.785 18.4664 175.765 17.3816C174.745 16.296 167.69 22.0072 167.69 22.0072C167.69 22.0072 174.884 15.6872 172.138 15.5336C170.906 15.468 161.224 22.044 150.735 29.94C153.671 33.6056 156.607 37.1464 159.778 40.5704C163.14 37.0952 165.79 34.3312 166.15 33.8696C167.228 32.484 177.945 33.408 177.989 31.7144C178.033 30.0208 170.928 29.2504 170.928 29.2504C170.928 29.2504 179.912 24.0088 179.794 22.3152V22.3152Z" fill="white"/>
<path id="Vector_6" d="M159.734 40.9C159.688 40.9008 159.644 40.8921 159.602 40.8744C159.56 40.8568 159.523 40.8306 159.492 40.7976C156.673 37.748 153.796 34.368 150.426 30.1448C150.398 30.1102 150.378 30.0704 150.365 30.0277C150.353 29.985 150.349 29.9402 150.354 29.896C150.368 29.8065 150.415 29.7256 150.486 29.6688C158.244 23.8032 170.355 15.204 172.087 15.204C172.475 15.1672 172.841 15.3912 172.983 15.7536C173.218 16.4136 172.396 17.6304 171.317 18.8552C173.328 17.5136 175.339 16.4792 175.97 17.1544C176.119 17.3144 176.189 17.5312 176.161 17.748C176.11 18.3488 175.427 19.2144 174.517 20.1744C175.897 19.3608 177.189 18.7448 177.783 18.8992C177.878 18.9178 177.968 18.9587 178.044 19.0185C178.121 19.0782 178.182 19.1552 178.223 19.2432C178.583 20.0136 177.203 21.5824 175.596 23.056C177.321 22.132 179.068 21.384 179.736 21.7216C179.844 21.7743 179.936 21.8553 180.002 21.956C180.068 22.0567 180.105 22.1734 180.11 22.2936C180.22 23.8776 174.385 27.5424 171.882 29.0376C174.172 29.3536 178.29 30.1376 178.253 31.7216C178.253 32.8728 175.823 33.0632 171.897 33.268C169.606 33.3928 166.758 33.5472 166.347 34.0744C165.936 34.6024 163.925 36.6992 159.954 40.8048C159.894 40.8612 159.816 40.8951 159.734 40.9008V40.9ZM151.168 29.9984C154.332 33.9576 157.04 37.176 159.742 40.0784C164.395 35.2704 165.614 33.9352 165.841 33.664C166.398 32.9312 168.498 32.784 171.882 32.6008C173.878 32.4912 177.593 32.2936 177.607 31.7064C177.607 30.8488 174.114 29.94 170.847 29.5808C170.778 29.5728 170.712 29.5429 170.661 29.4955C170.609 29.448 170.574 29.3855 170.561 29.3168C170.546 29.2483 170.552 29.1767 170.58 29.1122C170.607 29.0477 170.655 28.9933 170.714 28.9568C175.067 26.4352 179.522 23.2688 179.464 22.3592C179.009 22.044 175.72 23.6496 172.278 25.8856C172.206 25.9228 172.122 25.9323 172.043 25.9124C171.963 25.8925 171.894 25.8446 171.848 25.7775C171.801 25.7104 171.78 25.6287 171.789 25.5475C171.798 25.4663 171.837 25.3912 171.897 25.336C175.207 22.7992 177.894 20.1088 177.644 19.5808C177.152 19.3384 173.805 21.296 170.37 23.8688C170.298 23.9179 170.211 23.9378 170.126 23.9244C170.04 23.911 169.963 23.8654 169.91 23.7968C169.858 23.7282 169.833 23.642 169.842 23.556C169.851 23.47 169.893 23.3906 169.958 23.3344C172.066 21.7072 175.434 18.752 175.522 17.748V17.668C175.111 17.212 171.463 19.4344 167.882 22.3224C167.811 22.3751 167.724 22.3991 167.637 22.3896C167.549 22.38 167.469 22.3377 167.412 22.2712C167.381 22.2412 167.357 22.2053 167.34 22.1656C167.323 22.126 167.315 22.0834 167.315 22.0404C167.315 21.9974 167.323 21.9548 167.34 21.9152C167.357 21.8755 167.381 21.8396 167.412 21.8096C169.974 19.5512 172.594 16.6776 172.359 16.0256C172.359 15.9592 172.19 15.9296 172.058 15.9224C171.053 15.8712 162.824 21.2448 151.168 29.9984V29.9984Z" fill="#231F20"/>
<path id="Vector_7" d="M122.446 55.1008C120.288 61.912 133.324 93.3704 133.324 93.3704L149.473 73.4368C149.113 72.8208 140.95 58.6424 140.95 58.6424C140.95 58.6424 152.996 47.5064 159.712 40.5704C156.556 37.1464 153.576 33.576 150.669 29.94C137.78 39.6464 123.635 51.348 122.446 55.1008V55.1008Z" fill="#231F20"/>
<path id="Vector_8" d="M133.324 93.6936H133.244C133.188 93.6858 133.136 93.6634 133.092 93.6285C133.048 93.5936 133.014 93.5476 132.994 93.4952C132.458 92.212 119.936 61.8608 122.109 55.0128C123.334 51.1488 137.523 39.3968 150.463 29.6904C150.53 29.6389 150.614 29.6154 150.698 29.625C150.781 29.6345 150.858 29.6764 150.911 29.7416C154.266 33.9496 157.135 37.3224 159.947 40.3576C160.059 40.4832 160.059 40.672 159.947 40.7976C153.759 47.1904 142.918 57.264 141.354 58.708C144.155 63.5667 146.956 68.4248 149.758 73.2824C149.83 73.3944 149.83 73.5384 149.758 73.6496L133.61 93.576C133.576 93.618 133.532 93.6508 133.482 93.6713C133.432 93.6919 133.378 93.6995 133.324 93.6936V93.6936ZM150.632 30.3872C138.448 39.5656 123.929 51.5016 122.74 55.196C120.788 61.3544 131.746 88.6784 133.398 92.74L149.091 73.4072L140.686 58.8032C140.652 58.738 140.639 58.6632 140.651 58.5904C140.663 58.5175 140.699 58.4506 140.753 58.4C140.87 58.2904 152.614 47.4032 159.294 40.5632C156.593 37.6304 153.833 34.3904 150.632 30.3872V30.3872Z" fill="#231F20"/>
<path id="Vector_9" d="M160.835 87.6232C162.156 96.7576 168.241 104.485 174.847 111.545C178.803 115.738 183.655 120.006 189.447 119.734C192.214 119.595 194.812 118.406 197.227 117.058C203.273 113.706 208.682 109.316 213.206 104.089C212.321 104.092 211.465 103.768 210.805 103.177C210.145 102.587 209.727 101.773 209.632 100.893C210.813 101.444 212.123 101.659 213.418 101.514C214.713 101.369 215.942 100.87 216.972 100.071C221.464 96.5088 219.284 93.3632 215.849 90.7096C210.479 86.5753 206.207 81.1854 203.408 75.0136C199.121 65.4376 190.606 52.6456 177.996 55.5632C165.87 58.3632 162.582 69.2288 160.908 80.0056C160.503 82.5269 160.478 85.0947 160.835 87.6232V87.6232Z" fill="white"/>
<path id="Vector_10" d="M188.904 120.078C183.215 120.078 178.488 115.9 174.605 111.772C168.402 105.174 161.877 97.1608 160.505 87.6744C160.133 85.1009 160.15 82.486 160.556 79.9176C161.29 75.2992 162.457 69.3824 165.224 64.588C166.532 62.2003 168.342 60.1244 170.529 58.5031C172.716 56.8818 175.229 55.7536 177.894 55.196C183.648 53.8696 194.643 54.6536 203.694 74.8368C206.464 80.9629 210.702 86.3114 216.033 90.4088C218.602 92.3952 219.806 94.1408 219.82 95.9144C219.82 97.3808 218.932 98.8904 217.156 100.314C216.165 101.081 214.996 101.586 213.757 101.779C212.518 101.973 211.251 101.85 210.073 101.421C210.282 102.086 210.696 102.668 211.257 103.083C211.817 103.498 212.495 103.724 213.192 103.73C213.258 103.726 213.323 103.743 213.379 103.777C213.435 103.811 213.48 103.861 213.508 103.921C213.536 103.979 213.547 104.044 213.537 104.108C213.528 104.172 213.5 104.232 213.456 104.28C208.92 109.561 203.479 113.993 197.389 117.366C195.121 118.627 192.397 119.939 189.461 120.078H188.903H188.904ZM181.468 55.46C180.317 55.46 179.17 55.5912 178.047 55.8488C166.135 58.6056 162.919 69.0888 161.217 80.0424C160.822 82.5427 160.805 85.0881 161.166 87.5936C162.509 96.904 168.961 104.822 175.111 111.333C179.017 115.482 183.766 119.69 189.447 119.397C192.243 119.265 194.878 117.989 197.081 116.765C202.893 113.536 208.106 109.333 212.494 104.338C211.658 104.187 210.893 103.769 210.313 103.146C209.734 102.524 209.371 101.731 209.28 100.886C209.275 100.827 209.285 100.768 209.311 100.715C209.337 100.662 209.377 100.617 209.426 100.585C209.476 100.554 209.533 100.538 209.592 100.538C209.65 100.538 209.707 100.554 209.757 100.585C210.878 101.106 212.12 101.309 213.349 101.172C214.577 101.035 215.744 100.563 216.722 99.8072C218.33 98.5248 219.145 97.2272 219.13 95.9432C219.13 94.4192 217.97 92.7912 215.607 90.9656C210.193 86.8009 205.887 81.3675 203.07 75.1448C195.81 58.8984 187.34 55.46 181.468 55.46V55.46Z" fill="#231F20"/>
<path id="Vector_11" d="M244.681 116.296C244.167 118.326 235.734 133.37 235.734 133.37L246.744 139.316C246.744 139.316 256.704 122.644 257.555 121.538C258.407 120.43 265.63 110.819 266.614 107.447C267.598 104.074 260.654 101.582 257.806 101.853C254.958 102.125 245.195 114.265 244.681 116.296V116.296Z" fill="white"/>
<path id="Vector_12" d="M246.729 139.654C246.674 139.654 246.621 139.639 246.574 139.61L235.565 133.664C235.525 133.643 235.49 133.614 235.462 133.578C235.434 133.543 235.414 133.502 235.403 133.458C235.385 133.418 235.376 133.374 235.376 133.33C235.376 133.286 235.385 133.243 235.403 133.202C238.339 128.018 243.91 117.806 244.314 116.215C244.858 114.06 254.73 101.78 257.71 101.553C259.875 101.369 264.39 102.681 266.202 104.873C266.534 105.229 266.77 105.663 266.888 106.135C267.006 106.607 267.002 107.101 266.878 107.571C265.828 111.237 257.842 121.677 257.769 121.779C256.932 122.858 247.074 139.374 246.971 139.522C246.943 139.561 246.907 139.593 246.865 139.615C246.823 139.638 246.777 139.651 246.729 139.654V139.654ZM236.196 133.231L246.612 138.869C247.954 136.618 256.476 122.373 257.276 121.333C258.958 119.133 265.395 110.423 266.276 107.351C266.372 106.985 266.371 106.6 266.275 106.234C266.178 105.868 265.989 105.534 265.725 105.262C264.074 103.261 259.78 102.014 257.813 102.182C255.126 102.418 245.452 114.646 245.004 116.376C244.519 118.29 237.414 131.054 236.196 133.231V133.231Z" fill="#231F20"/>
<path id="Vector_13" d="M241.518 122.798L231.682 134.778L210.469 120.578L201.433 137.381C201.433 137.381 231.476 159.91 235.734 157.754C239.99 155.599 252.887 129.015 252.887 129.015L241.518 122.799V122.798Z" fill="#231F20"/>
<path id="Vector_14" d="M235.051 158.209C228.856 158.209 204.171 139.837 201.235 137.638C201.175 137.59 201.133 137.523 201.117 137.448C201.101 137.373 201.112 137.294 201.147 137.226L210.182 120.423C210.204 120.384 210.233 120.349 210.268 120.321C210.303 120.294 210.344 120.274 210.388 120.262C210.431 120.251 210.477 120.25 210.521 120.257C210.565 120.264 210.607 120.281 210.645 120.306L231.601 134.346L241.254 122.615C241.3 122.556 241.366 122.515 241.44 122.501C241.514 122.486 241.591 122.498 241.657 122.535L253.063 128.751C253.134 128.793 253.188 128.86 253.212 128.938C253.236 129.017 253.23 129.102 253.195 129.177C252.667 130.27 240.182 155.885 235.866 158.062C235.61 158.175 235.33 158.226 235.051 158.209V158.209ZM201.844 137.286C210.33 143.627 232.269 159.147 235.609 157.469C239.491 155.496 251.118 131.985 252.491 129.155L241.598 123.209L231.931 134.983C231.883 135.048 231.811 135.09 231.732 135.103C231.652 135.115 231.571 135.096 231.506 135.05L210.579 121.039L201.844 137.286V137.286ZM250.524 93.5024L250.428 122.798H264.309V93.5024H250.524Z" fill="#231F20"/>
<path id="Vector_15" d="M264.309 123.15H250.429C250.386 123.15 250.343 123.142 250.304 123.125C250.264 123.109 250.228 123.084 250.198 123.053C250.168 123.023 250.144 122.986 250.128 122.946C250.112 122.906 250.105 122.864 250.106 122.821L250.194 93.4952C250.196 93.409 250.231 93.327 250.293 93.2667C250.355 93.2065 250.438 93.1728 250.524 93.1728H264.308C264.487 93.1728 264.631 93.3168 264.631 93.4952V122.821C264.632 122.864 264.625 122.906 264.609 122.946C264.593 122.986 264.569 123.023 264.539 123.053C264.509 123.084 264.473 123.109 264.434 123.125C264.394 123.142 264.352 123.15 264.309 123.15V123.15ZM250.758 122.506H263.971V93.8256H250.832L250.758 122.506Z" fill="#231F20"/>
<path id="Vector_16" d="M251.933 96.0904L251.86 119.111H262.885V96.0904H251.933Z" fill="white"/>
<path id="Vector_17" d="M262.885 119.441H251.874C251.831 119.442 251.788 119.434 251.747 119.417C251.707 119.401 251.67 119.377 251.639 119.346C251.607 119.314 251.583 119.276 251.566 119.235C251.55 119.193 251.542 119.149 251.544 119.104L251.61 96.0904C251.613 96.0023 251.649 95.9184 251.712 95.8568C251.775 95.7952 251.86 95.7608 251.948 95.7608H262.899C263.082 95.7608 263.23 95.908 263.23 96.0904V119.111C263.23 119.156 263.22 119.2 263.203 119.241C263.185 119.282 263.16 119.319 263.128 119.35C263.095 119.38 263.057 119.404 263.015 119.42C262.974 119.436 262.929 119.443 262.885 119.441V119.441ZM252.197 118.752H262.547V96.428H252.27L252.198 118.752H252.197Z" fill="#231F20"/>
<path id="Vector_18" d="M244.079 117.821C244.079 117.821 242.01 107.953 245.114 106.406C248.218 104.859 258.891 103.048 257.24 105.467C255.589 107.886 249.805 109.382 249.805 109.382C249.805 109.382 250.994 112.835 249.687 115.284" fill="white"/>
<path id="Vector_19" d="M244.079 118.15C244.003 118.152 243.928 118.126 243.869 118.078C243.81 118.029 243.77 117.962 243.756 117.886C243.668 117.476 241.664 107.747 244.967 106.105C247.647 104.778 256.293 103.07 257.555 104.507C257.689 104.672 257.758 104.879 257.75 105.091C257.742 105.302 257.657 105.504 257.511 105.658C256.043 107.858 251.514 109.25 250.223 109.618C250.494 110.578 251.111 113.326 249.981 115.482C249.938 115.559 249.865 115.617 249.78 115.641C249.695 115.666 249.603 115.656 249.525 115.614C249.448 115.57 249.39 115.499 249.365 115.414C249.339 115.33 249.347 115.238 249.386 115.159C250.612 112.872 249.496 109.566 249.482 109.529C249.463 109.487 249.454 109.442 249.454 109.397C249.454 109.351 249.463 109.306 249.482 109.265C249.504 109.224 249.535 109.188 249.571 109.159C249.608 109.131 249.65 109.109 249.694 109.097C249.753 109.097 255.375 107.63 256.939 105.321C257.049 105.159 257.078 105.042 257.027 104.983C256.234 104.074 248.219 105.277 245.239 106.743C242.882 107.916 243.83 115.108 244.387 117.784C244.397 117.827 244.398 117.871 244.39 117.914C244.383 117.958 244.366 117.999 244.343 118.036C244.319 118.073 244.288 118.105 244.251 118.129C244.215 118.154 244.174 118.171 244.131 118.18L244.079 118.15V118.15Z" fill="#231F20"/>
<path id="Vector_20" d="M167.338 98.656L149.054 67.308L128.502 90.1008L136.135 106.538C136.135 106.538 124.391 134.302 124.391 188.722C124.391 188.722 186.914 188.45 202.651 188.45L182.099 156.522C182.099 156.522 187.238 141.728 189.887 138.033L205.191 146.354L223.087 122.007L167.338 98.6568V98.656Z" fill="#75ECCA"/>
<path id="Vector_21" d="M167.074 128.539C177.166 134.404 179.552 110.563 180 105.402C180.205 103.982 180.12 102.535 179.75 101.149C179.17 99.3896 177.813 98.0264 176.454 96.7504C174.833 95.284 172.961 93.7448 170.751 93.6496C169.72 93.6655 168.708 93.9224 167.794 94.3997C166.88 94.877 166.091 95.5615 165.489 96.3984C164.298 98.0819 163.44 99.9783 162.964 101.985C160.586 110.277 160.674 119.03 165.261 126.567C165.645 127.286 166.19 127.905 166.854 128.378L167.074 128.539V128.539Z" fill="#231F20"/>
<path id="Vector_22" d="M170.091 129.786C168.965 129.751 167.868 129.417 166.913 128.818L166.685 128.678C165.977 128.18 165.396 127.522 164.989 126.758C160.784 119.844 159.976 111.259 162.655 101.919C163.142 99.8733 164.016 97.9397 165.231 96.2232C165.862 95.3419 166.692 94.6222 167.654 94.1227C168.616 93.6232 169.683 93.358 170.766 93.3488C173.027 93.444 174.942 94.9392 176.638 96.5376C178.018 97.8064 179.413 99.2064 180.022 101.046C180.401 102.481 180.491 103.976 180.286 105.446C179.604 113.136 177.644 126.457 172.212 129.265C171.557 129.607 170.83 129.785 170.091 129.785V129.786ZM170.546 93.9936C169.598 94.041 168.674 94.3016 167.841 94.7561C167.009 95.2106 166.29 95.8472 165.738 96.6184C164.577 98.2706 163.742 100.13 163.279 102.095C160.644 111.259 161.43 119.69 165.54 126.42C165.891 127.095 166.393 127.68 167.008 128.129L167.221 128.253C168.968 129.272 170.509 129.411 171.926 128.678C175.698 126.728 178.532 118.238 179.662 105.372C179.858 103.994 179.778 102.591 179.427 101.244C178.87 99.5512 177.541 98.224 176.219 97.0072C174.576 95.4968 172.778 94.0744 170.722 93.9936H170.546H170.546ZM197.19 83.8328C198.122 87.212 196.596 91.516 194.306 94.016C192.779 95.6656 189.432 96.1056 188.757 93.4216C188.335 91.6547 188.272 89.8213 188.571 88.0296C188.87 86.2379 189.524 84.5242 190.496 82.9896C191.964 80.5776 194.776 79.1992 196.582 82.3C196.85 82.7824 197.054 83.2976 197.19 83.8328Z" fill="#231F20"/>
<path id="Vector_23" d="M191.267 95.6656C190.985 95.6671 190.704 95.6349 190.43 95.5696C189.938 95.4447 189.49 95.1841 189.138 94.8174C188.787 94.4506 188.545 93.9925 188.441 93.4952C188.009 91.6902 187.942 89.8174 188.242 87.9859C188.542 86.1545 189.203 84.4011 190.188 82.828C191.216 81.1784 192.669 80.1816 194.027 80.1888C194.798 80.1888 195.906 80.5488 196.831 82.1464C197.122 82.6504 197.35 83.1904 197.506 83.752C198.519 87.4176 196.772 91.816 194.57 94.236C194.145 94.685 193.632 95.0431 193.065 95.2888C192.497 95.5345 191.885 95.6627 191.266 95.6656H191.267ZM193.99 80.8336C192.874 80.8336 191.634 81.7216 190.738 83.1584C189.797 84.6593 189.164 86.3333 188.878 88.0819C188.592 89.8306 188.658 91.6188 189.072 93.3416C189.224 94.124 189.816 94.748 190.592 94.9392C191.22 95.0547 191.867 95.0104 192.474 94.8105C193.081 94.6107 193.627 94.2615 194.064 93.7952C196.134 91.5528 197.822 87.3224 196.882 83.9208C196.743 83.4078 196.538 82.9149 196.273 82.4544C195.649 81.384 194.893 80.8344 194.02 80.8264L193.99 80.8344V80.8336Z" fill="#231F20"/>
<path id="Vector_24" d="M181.446 98.9568C179.978 104.581 178.51 117.389 169.151 110.687C168.193 109.935 167.356 109.04 166.67 108.034C162.061 101.898 163.374 98.0256 165.76 91.2888C166.788 88.356 167.676 85.4232 168.696 82.4912C169.717 79.5584 171.398 76.8016 172.792 74.0232C172.741 74.1192 177.379 74.756 182.018 72.652C186.658 70.548 190.496 68.364 190.496 68.364C191.752 70.24 193.11 71.6624 193.778 73.892C194.394 76.0536 194.571 78.316 194.298 80.548C193.711 86.0248 191.517 91.948 189.028 96.8384C186.54 101.728 181.446 98.9568 181.446 98.9568Z" fill="white"/>
<path id="Vector_25" d="M173.878 112.938C172.41 112.938 170.774 112.278 168.953 110.973C167.967 110.2 167.105 109.28 166.398 108.246C161.65 101.919 163.081 97.8792 165.445 91.1936C165.936 89.7856 166.406 88.3416 166.861 86.948C167.353 85.4456 167.859 83.8984 168.402 82.3808C169.222 80.2551 170.191 78.1899 171.302 76.2008C171.713 75.4232 172.124 74.6464 172.513 73.8696C172.532 73.8302 172.559 73.7951 172.592 73.7664C172.626 73.7376 172.664 73.7157 172.706 73.702C172.748 73.6883 172.792 73.683 172.835 73.6865C172.879 73.69 172.922 73.7022 172.961 73.7224C176.004 74.0798 179.086 73.6034 181.879 72.344C184.748 71.0248 187.567 69.5968 190.327 68.0632C190.402 68.0231 190.489 68.0121 190.572 68.0323C190.655 68.0526 190.727 68.1026 190.775 68.1728C191.091 68.6424 191.407 69.0816 191.722 69.5144C192.763 70.784 193.568 72.2291 194.1 73.7816C194.726 75.9896 194.908 78.2992 194.636 80.5776C194.1 85.4816 192.222 91.3104 189.33 96.9776C189.027 97.651 188.588 98.2546 188.042 98.7505C187.495 99.2464 186.851 99.6239 186.151 99.8592C184.649 100.241 183.062 100.098 181.651 99.456C181.492 100.092 181.34 100.729 181.197 101.369C180.227 105.57 178.906 111.333 175.405 112.652C174.917 112.837 174.4 112.933 173.878 112.938V112.938ZM172.998 74.3968C172.646 75.1304 172.263 75.8048 171.897 76.5088C170.801 78.4723 169.844 80.5104 169.034 82.608C168.498 84.0744 167.992 85.6584 167.5 87.1536C167.008 88.6496 166.575 89.9984 166.076 91.4128C163.705 98.1144 162.406 101.802 166.942 107.842C167.608 108.823 168.42 109.695 169.35 110.43C171.654 112.087 173.622 112.63 175.222 112.029C178.385 110.834 179.626 105.285 180.594 101.23C180.793 100.379 180.969 99.58 181.153 98.8984C181.167 98.8499 181.191 98.8051 181.224 98.7671C181.258 98.7291 181.299 98.6989 181.345 98.6786C181.391 98.6583 181.441 98.6484 181.492 98.6496C181.542 98.6508 181.592 98.6631 181.637 98.6856C182.994 99.3829 184.556 99.573 186.041 99.2216C186.653 99.013 187.214 98.6798 187.691 98.243C188.167 97.8062 188.548 97.2754 188.809 96.684C191.663 91.084 193.528 85.3352 194.049 80.5112C194.314 78.3238 194.14 76.1053 193.535 73.9864C193.014 72.5043 192.234 71.1266 191.23 69.9176C190.966 69.5584 190.694 69.1848 190.438 68.8104C187.743 70.2896 184.995 71.6737 182.202 72.96C179.318 74.2554 176.139 74.7516 172.998 74.3968V74.3968Z" fill="#231F20"/>
<path id="Vector_26" d="M179.904 104.397C179.904 104.397 175.361 103.363 173.298 99.588C171.236 95.812 172.484 92.916 172.484 92.916C172.484 92.916 176.447 97.4984 181.46 98.9792L179.905 104.397H179.904Z" fill="#231F20"/>
<path id="Vector_27" d="M179.904 104.72H179.831C179.64 104.675 175.119 103.613 173.005 99.756C170.891 95.9 172.117 92.924 172.168 92.7984C172.19 92.7481 172.224 92.7042 172.268 92.6709C172.312 92.6376 172.363 92.6159 172.418 92.608C172.471 92.6004 172.526 92.6058 172.577 92.6238C172.628 92.6417 172.674 92.6717 172.711 92.7112C172.711 92.7552 176.682 97.2416 181.519 98.6792C181.56 98.691 181.598 98.7107 181.632 98.7374C181.665 98.764 181.693 98.797 181.713 98.8344C181.734 98.8718 181.747 98.9129 181.751 98.9553C181.756 98.9978 181.752 99.0407 181.74 99.0816L180.22 104.485C180.2 104.553 180.159 104.613 180.102 104.655C180.045 104.698 179.976 104.72 179.905 104.719L179.904 104.72ZM172.608 93.5536C172.181 95.5603 172.525 97.6541 173.57 99.4192C175.25 102.483 178.657 103.686 179.677 103.986L181.05 99.184C176.99 97.8864 173.702 94.7048 172.609 93.5536H172.608ZM182.686 89.72C181.762 89.6484 180.866 89.3674 180.066 88.8984C180.029 88.8772 179.997 88.849 179.971 88.8153C179.945 88.7815 179.925 88.743 179.914 88.7018C179.903 88.6607 179.9 88.6177 179.905 88.5754C179.911 88.5331 179.924 88.4922 179.946 88.4552C179.967 88.4182 179.995 88.3857 180.029 88.3596C180.062 88.3334 180.101 88.3142 180.142 88.303C180.183 88.2918 180.226 88.2888 180.269 88.2942C180.311 88.2996 180.352 88.3132 180.389 88.3344C180.954 88.6568 182.591 89.3904 183.325 88.9128C183.802 88.6056 183.281 85.5928 182.18 82.3152C182.165 82.2745 182.159 82.2312 182.161 82.1879C182.163 82.1447 182.174 82.1023 182.193 82.0633C182.212 82.0243 182.239 81.9895 182.271 81.9609C182.304 81.9323 182.342 81.9105 182.383 81.8968C182.424 81.8831 182.467 81.8777 182.51 81.881C182.554 81.8843 182.596 81.8963 182.634 81.9161C182.673 81.9359 182.707 81.9633 182.735 81.9965C182.762 82.0297 182.783 82.0682 182.796 82.1096C183.458 84.0672 184.859 88.708 183.67 89.4408C183.375 89.6248 183.034 89.7216 182.686 89.72V89.72Z" fill="#231F20"/>
<path id="Vector_28" d="M181.344 93.6936C180.582 93.7054 179.828 93.5397 179.142 93.2096C177.306 92.3 176.206 90.1672 175.823 86.868C175.815 86.7825 175.84 86.6972 175.893 86.63C175.947 86.5628 176.024 86.519 176.11 86.508C176.152 86.5029 176.195 86.5063 176.236 86.5179C176.278 86.5296 176.316 86.5493 176.349 86.576C176.383 86.6026 176.411 86.6356 176.431 86.6731C176.452 86.7106 176.465 86.7518 176.47 86.7944C176.814 89.8584 177.806 91.824 179.406 92.6592C181.85 93.8688 184.97 92.036 184.998 92.0216C185.035 91.999 185.076 91.984 185.118 91.9773C185.161 91.9706 185.204 91.9725 185.246 91.9828C185.287 91.993 185.327 92.0115 185.361 92.0372C185.396 92.0628 185.425 92.095 185.446 92.132C185.49 92.2062 185.503 92.2945 185.482 92.3781C185.462 92.4617 185.409 92.5338 185.336 92.5792C184.113 93.2626 182.744 93.6446 181.344 93.6936V93.6936ZM181.688 79.06C181.606 79.06 181.527 79.0289 181.468 78.9731C181.408 78.9173 181.371 78.8408 181.366 78.7592C181.314 78.0264 181.102 77.5792 180.719 77.388C179.986 77.0072 178.613 77.696 178.158 77.9968C178.086 78.042 177.999 78.0573 177.916 78.0394C177.833 78.0216 177.76 77.9719 177.713 77.9012C177.666 77.8304 177.649 77.7441 177.664 77.6606C177.68 77.5771 177.728 77.5031 177.798 77.4544C177.878 77.4032 179.758 76.1856 181.006 76.8088C181.331 77.0051 181.596 77.2864 181.773 77.6223C181.95 77.9582 182.033 78.336 182.011 78.7152C182.014 78.7576 182.009 78.8001 181.995 78.8403C181.982 78.8806 181.96 78.9177 181.932 78.9497C181.904 78.9817 181.87 79.0078 181.832 79.0266C181.794 79.0454 181.753 79.0565 181.71 79.0592H181.688V79.06ZM189.829 82.696C189.748 82.6964 189.67 82.6665 189.61 82.6123C189.551 82.5581 189.513 82.4835 189.506 82.4032C189.506 82.4032 189.358 80.7904 188.442 80.2032C187.649 79.6832 186.723 80.8704 186.716 80.8856C186.69 80.9195 186.658 80.9479 186.621 80.9691C186.584 80.9904 186.543 81.0042 186.501 81.0096C186.458 81.015 186.415 81.012 186.374 81.0008C186.333 80.9895 186.294 80.9702 186.261 80.944C186.226 80.9187 186.197 80.8867 186.175 80.8501C186.154 80.8134 186.139 80.7728 186.133 80.7305C186.127 80.6882 186.129 80.6452 186.14 80.6038C186.151 80.5625 186.169 80.5236 186.195 80.4896C186.643 79.9032 187.758 78.9792 188.801 79.6608C189.982 80.4384 190.145 82.2856 190.151 82.3592C190.155 82.4016 190.151 82.4445 190.138 82.4852C190.126 82.5259 190.105 82.5637 190.078 82.5965C190.051 82.6292 190.017 82.6562 189.979 82.6759C189.941 82.6956 189.9 82.7076 189.858 82.7112L189.829 82.696V82.696ZM164.013 80.9224C163.898 82.0906 164.101 83.2682 164.601 84.3304C165.642 86.2592 168.212 87.044 170.311 86.4208C175.794 84.8 178.43 74.3824 174.282 70.2912C170.429 66.4936 166.054 72.4912 165.151 76.032C164.733 77.696 164.072 79.236 164.014 80.9224H164.013Z" fill="#231F20"/>
<path id="Vector_29" d="M168.843 86.956C167.938 86.9799 167.042 86.7638 166.246 86.3299C165.451 85.8959 164.784 85.2594 164.314 84.4848C163.78 83.3729 163.564 82.1345 163.69 80.9072C163.791 79.68 164.038 78.4696 164.424 77.3C164.557 76.8528 164.688 76.4056 164.806 75.9584C165.445 73.4952 167.815 69.676 170.612 68.9056C171.301 68.7233 172.027 68.7349 172.709 68.9394C173.392 69.1438 174.005 69.533 174.48 70.064C176.484 72.0368 177.138 75.6072 176.19 79.3824C175.244 83.1584 173.019 85.9808 170.377 86.7136C169.879 86.8639 169.363 86.9454 168.843 86.956V86.956ZM164.336 80.9368C164.219 82.0494 164.41 83.1728 164.886 84.1848C165.44 85.0482 166.263 85.7049 167.228 86.0535C168.192 86.402 169.245 86.4229 170.222 86.1128C172.653 85.3792 174.708 82.7552 175.589 79.2288C176.469 75.7024 175.89 72.3368 174.054 70.5264C173.661 70.0737 173.149 69.7398 172.575 69.5622C172.002 69.3847 171.391 69.3707 170.81 69.5216C168.286 70.2552 166.046 73.8696 165.459 76.12C165.339 76.5766 165.212 77.0313 165.078 77.484C164.697 78.6018 164.45 79.7608 164.343 80.9368H164.336V80.9368Z" fill="#231F20"/>
<path id="Vector_30" d="M194.496 87.3664C194.366 87.3667 194.238 87.3324 194.125 87.2669C194.012 87.2014 193.919 87.107 193.855 86.9936C193.791 86.8801 193.758 86.7517 193.76 86.6213C193.762 86.491 193.798 86.3635 193.866 86.252C193.946 86.12 202.086 72.748 203.482 64.412C203.987 61.3912 202.644 58.3272 199.701 55.768C195.678 52.2784 189.674 50.7168 185.424 52.0584C177.864 54.4488 173.842 71.8528 173.798 72C173.749 72.1839 173.631 72.3419 173.469 72.4406C173.306 72.5394 173.112 72.5712 172.926 72.5294C172.741 72.4876 172.578 72.3755 172.474 72.2166C172.369 72.0578 172.331 71.8645 172.366 71.6776C172.535 70.944 176.623 53.2976 184.984 50.6584C189.762 49.1552 196.207 50.7976 200.662 54.6608C204.01 57.5936 205.529 61.1128 204.934 64.6536C203.466 73.2752 195.458 86.4568 195.121 87.0144C195.056 87.1215 194.964 87.21 194.855 87.2716C194.745 87.3333 194.622 87.3659 194.497 87.3664H194.496Z" fill="#231F20"/>
<path id="Vector_31" d="M234.294 191.2C231.663 191.191 229.05 190.768 226.55 189.946C223.572 188.891 220.817 187.29 218.426 185.225C214.352 181.933 210.762 178.003 207.29 174.228C205.089 171.816 202.813 169.324 200.434 167.022C192.985 159.807 185.586 155.966 178.414 155.614C168.77 155.13 160.218 160.636 152.423 166.654C151.69 167.241 150.897 167.85 150.118 168.466C143.814 173.458 136.664 179.11 127.856 177.784C121.852 176.882 117.19 172.747 114.342 169.44C107.333 161.296 104.066 149.646 105.689 138.348C107.406 126.178 114.196 117.601 125.874 112.85C135.541 108.921 144.665 103.422 153.495 98.1064L153.568 98.0704C159.037 94.7712 164.842 90.548 166.406 84.2144C166.43 84.1171 166.491 84.0331 166.576 83.9808C166.661 83.9285 166.764 83.9123 166.861 83.9356C166.958 83.9589 167.043 84.02 167.095 84.1053C167.147 84.1906 167.163 84.2931 167.14 84.3904C165.51 90.988 159.565 95.3208 153.964 98.6928L153.898 98.7368C145.046 104.067 135.894 109.58 126.175 113.532C114.754 118.172 108.118 126.552 106.438 138.458C104.866 149.543 108.038 160.943 114.894 168.927C117.661 172.146 122.174 176.163 127.958 177.029C136.451 178.311 143.167 172.997 149.656 167.864L151.968 166.046C159.881 159.939 168.564 154.353 178.444 154.851C185.784 155.218 193.344 159.126 200.926 166.464C203.319 168.788 205.602 171.288 207.812 173.707C211.262 177.49 214.829 181.398 218.866 184.653C221.186 186.66 223.859 188.219 226.749 189.25C236.666 192.446 246.567 189.301 256.249 179.895C270.614 165.907 278.71 144.705 278.453 121.655C278.335 110.893 276.325 102.483 272.302 95.9368C270.68 93.2896 268.632 90.3424 265.299 88.8688C263.597 88.136 259.603 87.8576 258.062 90.0208C257.475 90.8488 257.416 91.824 257.328 93.0624C257.328 93.5984 257.254 94.1984 257.174 94.8512C257.156 94.9445 257.104 95.0276 257.027 95.0834C256.951 95.1393 256.856 95.1636 256.762 95.1514C256.668 95.1392 256.582 95.0914 256.522 95.0178C256.462 94.9443 256.433 94.8506 256.44 94.756C256.528 94.1256 256.558 93.5616 256.594 93.0184C256.674 91.7144 256.748 90.592 257.46 89.5944C259.251 87.08 263.641 87.344 265.593 88.2024C269.146 89.756 271.238 92.8136 272.933 95.5336C277.029 102.198 279.069 110.731 279.194 121.633C279.45 144.858 271.282 166.281 256.77 180.401C249.415 187.593 241.877 191.193 234.294 191.2V191.2ZM163.338 29.6176C163.285 29.6171 163.233 29.6057 163.185 29.5842C163.137 29.5628 163.095 29.5316 163.059 29.4928C162.992 29.4231 162.954 29.3299 162.954 29.2328C162.954 29.1358 162.992 29.0425 163.059 28.9728C164.674 27.572 166.274 26.9568 167.822 27.132C169.137 27.3112 170.331 27.9917 171.155 29.0312C171.271 29.196 171.235 29.4232 171.075 29.544C171.036 29.5725 170.992 29.5931 170.945 29.6045C170.898 29.616 170.849 29.618 170.801 29.6106C170.754 29.6032 170.708 29.5864 170.667 29.5612C170.625 29.5361 170.589 29.503 170.561 29.464C169.858 28.5887 168.852 28.01 167.742 27.8432C166.406 27.6888 164.997 28.2536 163.543 29.5152C163.488 29.5709 163.415 29.6068 163.338 29.6176V29.6176Z" fill="#231F20"/>
<path id="Vector_32" d="M185.204 148.312C185.153 148.322 185.101 148.322 185.05 148.312C184.972 148.27 184.912 148.199 184.885 148.114C184.857 148.029 184.864 147.937 184.903 147.857L194.166 129.309C194.209 129.235 194.278 129.18 194.36 129.156C194.442 129.132 194.53 129.14 194.606 129.178C194.682 129.217 194.74 129.283 194.769 129.363C194.798 129.443 194.795 129.531 194.761 129.61L185.505 148.128C185.477 148.184 185.434 148.231 185.381 148.263C185.328 148.296 185.266 148.313 185.204 148.312V148.312ZM167.948 151.926C157.341 151.926 144.878 148.494 144.188 148.304C144.14 148.298 144.094 148.282 144.053 148.256C144.011 148.231 143.976 148.197 143.949 148.157C143.922 148.117 143.904 148.071 143.897 148.023C143.889 147.976 143.891 147.927 143.904 147.88C143.917 147.833 143.94 147.79 143.971 147.753C144.001 147.716 144.04 147.686 144.084 147.665C144.127 147.644 144.175 147.632 144.223 147.631C144.272 147.631 144.32 147.64 144.364 147.659C144.591 147.718 166.846 153.854 177.138 149.931C177.312 149.867 177.506 149.956 177.57 150.13C177.587 150.17 177.595 150.213 177.594 150.257C177.593 150.301 177.584 150.344 177.566 150.383C177.548 150.423 177.522 150.459 177.49 150.488C177.458 150.518 177.42 150.541 177.379 150.555C174.34 151.563 171.147 152.027 167.947 151.926H167.948ZM256.322 91.4496H257.922V93.8248H256.322V91.4496Z" fill="#231F20"/>
<path id="Vector_33" d="M257.922 94.148H256.322C256.236 94.148 256.153 94.1142 256.091 94.0538C256.03 93.9934 255.994 93.9112 255.992 93.8248V91.4496C255.992 91.4066 256.001 91.364 256.017 91.3244C256.034 91.2847 256.058 91.2488 256.089 91.2188C256.12 91.1887 256.157 91.1651 256.197 91.1494C256.237 91.1337 256.279 91.1261 256.322 91.1272H257.922C258.101 91.1272 258.246 91.2712 258.246 91.4496V93.8256C258.246 93.868 258.237 93.91 258.221 93.9492C258.205 93.9883 258.181 94.0239 258.151 94.0539C258.121 94.0838 258.085 94.1075 258.046 94.1237C258.007 94.1399 257.965 94.1481 257.922 94.148ZM256.646 93.4952H257.6V91.7728H256.646V93.4952Z" fill="#231F20"/>
<path id="Vector_34" d="M170.421 84.5288L169.893 84.016C171.523 82.397 172.586 80.2954 172.926 78.0235C173.266 75.7516 172.864 73.4306 171.779 71.4056L172.41 71.032C173.574 73.1965 174.009 75.6786 173.651 78.1099C173.293 80.5412 172.16 82.7922 170.421 84.5288V84.5288ZM194.643 94.148L193.961 93.876C196.105 88.356 195.561 84.28 195.561 84.2432L196.295 84.1408C196.31 84.2944 196.86 88.4288 194.643 94.148ZM135.389 63.824L140.706 58.3944L141.23 58.9064L135.914 64.3368L135.389 63.824ZM231.526 135.121L231.848 134.462L237.498 137.225L237.175 137.884L231.526 135.121Z" fill="white"/>
<path id="musics" d="M43.0376 84.0656C42.7288 83.9928 42.3984 83.9416 42.0976 83.8384C41.625 83.7216 41.1911 83.4837 40.8384 83.1481C40.4857 82.8126 40.2266 82.391 40.0864 81.9248C39.9856 81.5193 39.9727 81.0969 40.0486 80.686C40.1245 80.2751 40.2874 79.8852 40.5264 79.5424C40.9272 78.9355 41.4478 78.4169 42.0563 78.0185C42.6647 77.6201 43.3483 77.3502 44.0648 77.2256C45.012 77.0128 45.4376 77.0648 46.9424 77.4312V59.776L64.324 56.3016V77.892C64.3458 78.4462 64.2415 78.9981 64.0189 79.5062C63.7964 80.0142 63.4614 80.4651 63.0392 80.8248C62.3494 81.4928 61.4945 81.9656 60.562 82.1949C59.6296 82.4241 58.6529 82.4016 57.732 82.1296C57.2555 82.024 56.8166 81.7908 56.4624 81.455C56.1081 81.1192 55.8518 80.6934 55.7208 80.2232C55.6142 79.8197 55.5978 79.3978 55.6728 78.9873C55.7477 78.5768 55.9122 78.1878 56.1544 77.848C56.5547 77.2378 57.077 76.717 57.6882 76.3183C58.2995 75.9196 58.9866 75.6516 59.7064 75.5312C60.6557 75.3238 61.6447 75.3952 62.5544 75.7368V63.5968L61.3216 63.8384C57.195 64.6678 53.0673 65.4915 48.9384 66.3096C48.7112 66.3536 48.6744 66.4416 48.6744 66.6464V79.5208C48.6956 80.1788 48.5515 80.8315 48.2552 81.4193C47.9589 82.0072 47.5199 82.5113 46.9784 82.8856C46.1682 83.4975 45.212 83.8866 44.2048 84.0144C44.1523 84.0281 44.1007 84.0452 44.0504 84.0656H43.0376V84.0656ZM318.084 134.664V134.246C318.039 133.861 317.894 133.495 317.666 133.183C317.293 132.641 316.811 132.184 316.25 131.842C315.688 131.482 315.063 131.233 314.407 131.108C313.99 131.028 313.562 131.028 313.145 131.108H313.034C313.03 131.059 313.03 131.01 313.034 130.962C313.108 130.675 313.181 130.397 313.262 130.126L314.73 124.994C315.266 123.131 315.81 121.27 316.345 119.407V119.298L315.831 119.254C314.425 119.178 313.02 119.429 311.727 119.986C310.519 120.485 309.511 121.369 308.858 122.501C308.674 122.824 308.535 123.168 308.381 123.513C308.278 123.733 308.197 123.967 308.102 124.194C308.097 124.226 308.097 124.259 308.102 124.29L308.286 124.18C308.868 123.798 309.479 123.46 310.113 123.168C311.091 122.729 312.163 122.538 313.233 122.611C313.693 122.656 314.147 122.757 314.583 122.912C314.58 122.948 314.58 122.985 314.583 123.022C313.693 126.11 312.81 129.198 311.934 132.281C311.922 132.337 311.922 132.394 311.934 132.45C311.996 132.995 312.227 133.507 312.594 133.916C313.058 134.483 313.646 134.937 314.311 135.243L314.884 135.492L315.412 135.646H315.559C315.995 135.734 316.445 135.734 316.881 135.646C317.248 135.594 317.584 135.412 317.827 135.133C317.907 135.022 317.98 134.907 318.048 134.789L318.084 134.664V134.664ZM56.908 141.877C56.908 141.701 56.908 141.517 56.9896 141.341C57.1176 140.858 57.3712 140.415 57.7232 140.058C58.3157 139.441 59.0307 138.954 59.8224 138.629C60.6151 138.281 61.4675 138.089 62.3328 138.064C62.8849 138.047 63.4353 138.134 63.9552 138.321L64.0944 138.372C64.0984 138.309 64.0984 138.245 64.0944 138.182C64.0944 137.808 64.0208 137.449 63.9768 137.067C63.6984 134.755 63.4168 132.451 63.1328 130.154C62.8248 127.646 62.5088 125.146 62.2008 122.646V122.5C62.428 122.5 62.656 122.5 62.8688 122.551C64.6936 122.733 66.452 123.333 68.0072 124.303C69.4521 125.192 70.5639 126.532 71.1704 128.116C71.3304 128.572 71.4656 129.038 71.5744 129.508C71.6624 129.817 71.7208 130.132 71.7944 130.447C71.8057 130.488 71.8057 130.531 71.7944 130.572L71.5816 130.388C70.9095 129.778 70.1928 129.22 69.4376 128.717C68.2753 127.953 66.9408 127.492 65.5552 127.375C64.9538 127.336 64.3499 127.37 63.7568 127.478C63.7608 127.524 63.7608 127.571 63.7568 127.618C64.2464 131.762 64.748 135.916 65.2616 140.081C65.2762 140.151 65.2762 140.223 65.2616 140.293C65.0741 140.993 64.6711 141.616 64.1096 142.074C63.3979 142.71 62.5484 143.172 61.628 143.423C61.372 143.504 61.1072 143.563 60.8504 143.629L60.116 143.717H60C59.422 143.754 58.8426 143.674 58.296 143.482C57.8385 143.345 57.4472 143.045 57.196 142.639C57.1106 142.481 57.0368 142.317 56.9752 142.148L56.9096 141.876L56.908 141.877ZM232.666 76.8528C232.761 76.6624 232.842 76.4648 232.951 76.2888C233.294 75.7905 233.759 75.389 234.302 75.1232C235.216 74.6594 236.216 74.3897 237.238 74.3312C238.269 74.2496 239.305 74.3663 240.292 74.6752C240.924 74.8703 241.513 75.1868 242.024 75.6072L242.163 75.7168C242.199 75.6486 242.228 75.5774 242.251 75.504C242.362 75.072 242.464 74.6392 242.56 74.1992L244.322 66.0616C244.953 63.1288 245.582 60.1816 246.208 57.22L246.245 57.044C246.501 57.1536 246.744 57.2488 246.978 57.3592C248.96 58.2804 250.703 59.6449 252.073 61.3472C253.362 62.916 254.094 64.8675 254.157 66.8968C254.157 67.4728 254.128 68.048 254.069 68.62C254.069 69.0088 253.989 69.3528 253.944 69.7712C253.939 69.8179 253.924 69.863 253.9 69.9032L253.724 69.6168C253.207 68.6666 252.618 67.7573 251.962 66.8968C250.951 65.5749 249.623 64.5286 248.102 63.8544C247.439 63.5739 246.744 63.3792 246.032 63.2752H245.98C245.972 63.3323 245.96 63.3888 245.943 63.444L242.773 78.0632C242.755 78.1488 242.723 78.2306 242.677 78.3048C242.19 79.0206 241.493 79.5665 240.681 79.8664C239.626 80.3001 238.486 80.488 237.348 80.416C237.026 80.416 236.71 80.372 236.386 80.3432L235.542 80.1672L235.403 80.108C234.737 79.9236 234.116 79.6069 233.575 79.1768C233.116 78.8374 232.791 78.3467 232.658 77.7912C232.629 77.5797 232.612 77.3669 232.606 77.1536L232.666 76.8528V76.8528Z" fill="#CD7DF3"/>
<path id="circles" d="M30.4736 40.64C26.6936 40.64 26.6864 46.5048 30.4736 46.5048C34.2616 46.5048 34.2616 40.6408 30.4736 40.6408V40.64ZM316.074 47.04C312.294 47.04 312.286 52.9048 316.074 52.9048C319.862 52.9048 319.862 47.0408 316.074 47.0408V47.04ZM267.77 33.5336C267.7 33.2914 267.571 33.0701 267.396 32.8888L267.095 32.6616C266.873 32.5296 266.619 32.4587 266.361 32.456H265.95C265.753 32.4473 265.557 32.4929 265.385 32.588C265.201 32.644 265.037 32.748 264.908 32.8888C264.77 33.0178 264.667 33.1789 264.606 33.3576C264.514 33.5312 264.471 33.7264 264.482 33.9224L264.534 34.3184C264.602 34.5616 264.731 34.7824 264.908 34.9632L265.209 35.1912C265.432 35.32 265.685 35.388 265.942 35.3888H266.354C266.55 35.4 266.746 35.3568 266.919 35.264C267.1 35.204 267.263 35.1008 267.396 34.9632C267.655 34.6767 267.805 34.3089 267.822 33.9232C267.807 33.7976 267.785 33.6656 267.77 33.5336H267.77ZM92.4496 26.6792C90.0856 26.6792 90.0784 30.3448 92.4496 30.3448C94.82 30.3448 94.8128 26.6792 92.4496 26.6792ZM303.916 62.2712C301.552 62.2712 301.552 65.9376 303.916 65.9376C306.279 65.9376 306.279 62.272 303.916 62.272V62.2712Z" fill="#698DFF"/>
</g>
</g>
</g>
</svg>
