<svg id="eb7Hc0iIAwy1" xmlns="http://www.w3.org/2000/svg" xmlns:xlink="http://www.w3.org/1999/xlink" viewBox="0 0 450 220" shape-rendering="geometricPrecision" text-rendering="geometricPrecision"><defs><path id="eb7Hc0iIAwy2" d="M0,0h450v220h-450Z"/></defs><g><use width="450" height="220" xlink:href="#eb7Hc0iIAwy2" fill="#382ae1" fill-rule="evenodd"/><g mask="url(#eb7Hc0iIAwy41)"><path d="M218.812,46v13.368h1.685v3.623h6.303v77.983l12.758,6.699v-12.891h3.046v14.545l2.984,1.543v112.908L31.9,266.214v-72.237h7.013v-69.457h2.548v-9.55h3.045v9.55h14.15l-.001.014v.196c-.01,2.072-.088,19.036-.094,31.525v3.018c.003,5.998.028,10.37.094,10.445s.784.104,1.747.108h.5c2.152-.008,5.071-.108,5.071-.108v36.439h5.786v-129.758h7.379v-7.156h3.045v7.157h23.111v6.395h8.79v-13.55h3.045v13.55h4.314v23.771h10.353v42.63h12.18v38.692h6.384v-80.419h8.04v-12.313h3.044v12.312h22.117v-44.446h6.455v-3.654h25.75v-13.368h3.046ZM15.842,147.489v4.151h3.198L25.475,265.9h-33.475l6.445-114.259h2.517v-4.151h14.88Z" fill="#1e1fcd"/><path d="M422.812,82v13.368h1.685v3.623h6.303v77.983l12.758,6.699v-12.891h3.046v14.545l2.984,1.543v112.908L235.9,302.214v-72.237h7.013v-69.457h2.548v-9.55h3.045v9.55h14.15l-.001.014v.196c-.01,2.072-.088,19.036-.094,31.525v3.018c.003,5.998.028,10.37.094,10.445s.784.104,1.747.108h.5c2.152-.008,5.071-.108,5.071-.108v36.439h5.786v-129.758h7.379v-7.156h3.045v7.156h23.111v6.395h8.79v-13.55h3.045v13.55h4.314v23.771h10.353v42.63h12.18v38.692h6.384v-80.419h8.04v-12.312h3.044v12.312h22.117v-44.446h6.455v-3.654h25.75v-13.368h3.046ZM219.842,183.489v4.151h3.198l6.435,114.259h-33.475l6.445-114.259h2.517v-4.151h14.88Z" fill="#1e1fcd"/><g><path d="M224.743,27.894c-.147-2.117-9.625,4.042-9.625,4.042s8.029-6.159,7.34-7.698c-.688-1.54-9.734,5.196-9.734,5.196s8.257-6.351,6.982-7.707c-1.275-1.357-10.093,5.782-10.093,5.782s8.992-7.9,5.56-8.092c-1.541-.082-13.643,8.138-26.754,18.008c3.67,4.582,7.34,9.008,11.304,13.288c4.202-4.344,7.514-7.799,7.964-8.376c1.348-1.732,14.744-.577,14.799-2.694s-8.826-3.08-8.826-3.08s11.23-6.552,11.083-8.669Z" fill="#fff"/><path d="M199.667,51.125c-.114237.001957-.223962-.044549-.302-.128-3.524-3.812-7.12-8.037-11.332-13.316-.070612-.087373-.103375-.199344-.091-.311.017996-.111811.076779-.212989.165-.284c9.698-7.332,24.837-18.081,27.002-18.081.485-.046.942.234,1.12.687.293.825-.734,2.346-2.083,3.877c2.514-1.677,5.028-2.97,5.817-2.126.186.2.273.471.238.742-.064.751-.917,1.833-2.055,3.033c1.725-1.017,3.34-1.787,4.083-1.594.241512.047212.445911.207015.55.43.45.963-1.275,2.924-3.284,4.766c2.156-1.155,4.34-2.09,5.175-1.668.275527.134235.455229.408779.468.715.137,1.98-7.157,6.561-10.286,8.43c2.863.395,8.01,1.375,7.964,3.355c0,1.439-3.037,1.677-7.945,1.933-2.863.156-6.423.349-6.937,1.008-.514.66-3.028,3.281-7.991,8.413-.075501.070491-.172954.112862-.276.12ZM188.96,37.498c3.955,4.949,7.34,8.972,10.717,12.6c5.817-6.01,7.34-7.679,7.624-8.018.697-.916,3.322-1.1,7.551-1.329c2.496-.137,7.139-.384,7.157-1.118c0-1.072-4.367-2.208-8.45-2.657-.17838-.020485-.323088-.153874-.358-.33-.03867-.175611.038465-.356396.192-.45c5.441-3.152,11.01-7.11,10.937-8.247-.569-.394-4.68,1.613-8.982,4.408-.188057.09606-.418166.038327-.538603-.135132s-.094117-.409236.061603-.551868c4.138-3.171,7.496-6.534,7.184-7.194-.615-.303-4.799,2.144-9.093,5.36-.184833.127527-.437163.08797-.574105-.09s-.110524-.432013.060105-.578c2.634-2.034,6.845-5.728,6.955-6.983v-.1c-.514-.57-5.074,2.208-9.551,5.818-.181987.136587-.438723.108596-.587-.064-.077764-.075846-.121616-.179873-.121616-.2885s.043852-.212654.121616-.2885c3.202-2.823,6.477-6.415,6.184-7.23c0-.083-.211-.12-.376-.129-1.257-.064-11.543,6.653-26.113,17.595Z" fill="#231f20"/><path d="M153.058,68.876c-2.698,8.514,13.597,47.837,13.597,47.837l20.186-24.917c-.45-.77-10.653-18.493-10.653-18.493s15.057-13.92,23.452-22.59c-3.945-4.28-7.67-8.743-11.304-13.288-16.111,12.133-33.792,26.76-35.278,31.451Z" fill="#231f20"/><path d="M166.655,117.117h-.1c-.141602-.019753-.261391-.114666-.313-.248-.67-1.604-16.322-39.543-13.606-48.103c1.532-4.83,19.268-19.52,35.443-31.653.173177-.133911.421502-.105531.56.064c4.193,5.26,7.78,9.476,11.295,13.27.14.157.14.393,0,.55-7.735,7.991-21.287,20.583-23.241,22.388c3.500503,6.073337,7.00217,12.146004,10.505,18.218.09.14.09.32,0,.459L167.013,116.97c-.086574.106687-.221434.162063-.358.147ZM188.29,37.984c-15.23,11.473-33.379,26.393-34.865,31.011-2.44,7.698,11.258,41.853,13.322,46.93l19.617-24.166-10.506-18.255c-.089049-.167512-.055062-.373889.083-.504.146-.137,14.827-13.746,23.176-22.296-3.376-3.666-6.826-7.716-10.827-12.72Z" fill="#231f20"/><path d="M201.044,109.529c1.651,11.418,9.257,21.077,17.515,29.902c4.945,5.242,11.01,10.576,18.25,10.237c3.458-.174,6.706-1.66,9.725-3.345c7.557218-4.190826,14.318258-9.678459,19.974-16.212-2.292698.009177-4.221638-1.715558-4.468-3.995c3.008914,1.405442,6.551294,1.008927,9.175-1.027c5.615-4.453,2.89-8.385-1.404-11.702-6.712089-5.167897-12.052172-11.905241-15.551-19.62-5.359-11.97-16.002-27.96-31.765-24.313-15.157,3.5-19.268,17.082-21.36,30.553-.506564,3.151571-.537239,6.361324-.091,9.522Z" fill="#fff"/><path d="M236.13,150.098c-7.111,0-13.02-5.223-17.874-10.383-7.753-8.247-15.91-18.264-17.625-30.122-.464956-3.216926-.443382-6.485492.064-9.696.918-5.773,2.376-13.169,5.835-19.162c3.309304-6.040002,9.095803-10.329545,15.837-11.74c7.193-1.658,20.937-.678,32.25,24.551c3.463086,7.657582,8.760756,14.343212,15.424,19.465c3.211,2.483,4.716,4.665,4.734,6.882c0,1.833-1.11,3.72-3.33,5.499-2.517946,1.950932-5.860798,2.473465-8.854,1.384.535578,1.706249,2.110722,2.872155,3.899,2.886.168059-.008235.324312.086308.395.239.072636.148807.046854.326901-.065.449-5.670395,6.601813-12.47125,12.140968-20.084,16.358-2.835,1.576-6.24,3.216-9.91,3.39h-.697Zm-9.295-80.773c-1.439,0-2.873.164-4.276.486-14.89,3.446-18.91,16.55-21.038,30.242-.493541,3.125404-.515115,6.307191-.064,9.439c1.679,11.638,9.744,21.536,17.432,29.674c4.882,5.186,10.818,10.447,17.92,10.08c3.495-.165,6.789-1.76,9.542-3.29c7.264764-4.035664,13.781947-9.289797,19.267-15.533-2.14795-.389002-3.783404-2.145752-4.018-4.316-.013885-.149652.05666-.294596.183-.376.126703-.077702.286297-.077702.413,0c2.856053,1.327796,6.214063.952927,8.707-.972c2.01-1.603,3.028-3.225,3.01-4.83c0-1.905-1.45-3.94-4.404-6.222-6.767915-5.20583-12.150267-11.99765-15.672-19.776-9.074-20.308-19.662-24.606-27.002-24.606Z" fill="#231f20"/><path d="M305.851,145.37c-.642,2.538-11.184,21.343-11.184,21.343l13.763,7.432c0,0,12.45-20.84,13.514-22.223c1.065-1.384,10.093-13.398,11.323-17.613c1.23-4.216-7.45-7.332-11.01-6.993-3.56.34-15.763,15.515-16.406,18.054Z" fill="#fff"/><path d="M308.411,174.567c-.068239.000276-.135158-.018794-.193-.055l-13.762-7.432c-.100613-.053287-.173993-.146645-.202-.257-.045267-.101864-.045267-.218136,0-.32c3.67-6.48,10.634-19.246,11.139-21.234.679-2.694,13.02-18.044,16.744-18.328c2.707-.23,8.35,1.41,10.616,4.15.841977.904752,1.160656,2.178332.844,3.373-1.312,4.582-11.295,17.632-11.386,17.76-1.046,1.348-13.369,21.994-13.497,22.178-.070372.098534-.182049.159348-.303.165Zm-13.166-8.028l13.02,7.047c1.678-2.813,12.33-20.62,13.33-21.92c2.102-2.75,10.149-13.637,11.25-17.477.243492-.930937-.017878-1.921414-.689-2.611-2.064-2.502-7.431-4.06-9.89-3.85-3.358.294-15.451,15.58-16.011,17.742-.606,2.392-9.487,18.347-11.01,21.069Z" fill="#231f20"/><path d="M301.897,153.498l-12.295,14.975-26.516-17.751-11.295,21.004c0,0,37.554,28.161,42.876,25.467c5.321-2.694,21.442-35.924,21.442-35.924l-14.212-7.77Z" fill="#231f20"/><path d="M293.814,197.761c-7.744,0-38.6-22.965-42.27-25.714-.155395-.122654-.201585-.33849-.11-.514l11.294-21.004c.053537-.100017.14666-.172916.256605-.200878s.226579-.008409.321395.053878l26.195,17.55l12.066-14.663c.120403-.152978.334312-.19542.504-.1l14.258,7.77c.184698.107665.256358.338716.165.532-.66,1.366-16.267,33.385-21.662,36.107-.32.141-.67.204-1.018.183Zm-41.509-26.154c10.607,7.927,38.031,27.327,42.206,25.229c4.853-2.466,19.387-31.855,21.103-35.392l-13.616-7.433-12.084,14.718c-.125578.167199-.361458.203999-.532.083l-26.158-17.513-10.919,20.308Zm60.85-54.729l-.12,36.62h17.351v-36.62Z" fill="#231f20"/><path d="M330.386,153.938h-17.35c-.108548.000021-.212538-.043639-.288537-.121143s-.117612-.18233-.115463-.290857l.11-36.657c.00543-.224179.188755-.403066.413-.403h17.23c.224,0,.404.18.404.403v36.657c.002422.108433-.038965.213265-.114806.2908s-.179734.121227-.288194.1212Zm-16.938-.806h16.516v-35.85h-16.424l-.092,35.85Z" fill="#231f20"/><path d="M314.916,120.113l-.091,28.776h13.781v-28.776Z" fill="#fff"/><path d="M328.606,149.301h-13.763c-.110124.002069-.216319-.040915-.294-.119-.080247-.079535-.123421-.189103-.119-.302l.083-28.767c.005432-.22915.192786-.412064.422-.412h13.689c.228,0,.413.184.413.412v28.776c-.000166.112552-.04626.220161-.127619.297934s-.190936.118972-.303381.114066Zm-13.36-.861h12.938v-27.905h-12.846l-.091,27.905Z" fill="#231f20"/><path d="M305.099,147.276c0,0-2.587-12.335,1.294-14.269c3.88-1.933,17.221-4.197,15.157-1.173s-9.294,4.894-9.294,4.894s1.486,4.316-.147,7.377" fill="#fff"/><path d="M305.099,147.688c-.197154.003331-.367911-.136149-.404-.33-.11-.513-2.615-12.674,1.514-14.727c3.35-1.658,14.157-3.794,15.735-1.997.345649.425043.322105,1.0406-.055,1.438-1.835,2.75-7.496,4.49-9.11,4.95.339,1.2,1.11,4.636-.303,7.33-.112724.201853-.36688.275425-.57.165-.200111-.112743-.276287-.362849-.173-.568c1.532-2.859.137-6.992.119-7.038-.045977-.105196-.045977-.224804,0-.33.05707-.102709.15285-.178325.266-.21.073,0,7.101-1.833,9.056-4.72.137-.202.174-.348.11-.422-.991-1.136-11.01.367-14.735,2.2-2.946,1.466-1.762,10.456-1.065,13.801.024557.108187.004446.221706-.055783.314873s-.155485.158106-.264217.180127l-.065-.037Z" fill="#231f20"/><path d="M209.173,123.32L186.318,84.135l-25.69,28.491l9.541,20.546c0,0-14.68,34.705-14.68,102.73c0,0,78.154-.339,97.825-.339l-25.69-39.91c0,0,6.423-18.493,9.735-23.112l19.13,10.402l22.37-30.434-69.686-29.188Z" fill="#75ecca"/><path d="M208.843,160.674c12.615,7.331,15.597-22.47,16.157-28.922.256-1.775.15-3.583-.312-5.316-.725-2.199-2.422-3.903-4.12-5.498-2.027-1.833-4.367-3.757-7.129-3.876-2.612721.040391-5.05225,1.314673-6.578,3.436-1.488997,2.104357-2.560367,4.474883-3.156,6.983-2.973,10.365-2.863,21.307,2.871,30.728.479957.897997,1.161443,1.672583,1.991,2.263l.276.202Z" fill="#231f20"/><path d="M212.614,162.232c-1.408279-.043409-2.779597-.461052-3.973-1.21l-.285-.174c-.885139-.62305-1.611353-1.445521-2.12-2.401-5.256-8.642-6.266-19.373-2.917-31.048.608346-2.557341,1.701414-4.974312,3.22-7.12c1.599824-2.23432,4.171079-3.569559,6.919-3.593c2.826.119,5.22,1.988,7.34,3.986c1.725,1.586,3.468,3.336,4.23,5.636.473,1.793.586,3.662.33,5.499-.853,9.613-3.303,26.264-10.093,29.774-.818337.427233-1.727852.650237-2.651.65Zm.568-44.74c-2.398855.119924-4.61184,1.328044-6.01,3.281-1.451332,2.065268-2.494393,4.388988-3.073,6.846-3.294,11.455-2.312,21.994,2.826,30.406.438839.843929,1.066861,1.574967,1.835,2.136l.266.155c2.184,1.274,4.11,1.448,5.881.532c4.716-2.438,8.258-13.05,9.671-29.133.2447-1.722497.144766-3.476445-.294-5.16-.697-2.116-2.358-3.775-4.01-5.296-2.054-1.888-4.302-3.666-6.871-3.767h-.22Zm33.306-12.701c1.165,4.224-.743,9.604-3.606,12.729-1.908,2.062-6.092,2.612-6.936-.743-1.064313-4.461955-.280289-9.164658,2.174-13.04c1.835-3.015,5.35-4.738,7.607-.862.335.603.591,1.247.761,1.916Z" fill="#231f20"/><path d="M239.084,119.582c-.352206.001876-.70337-.038411-1.046-.12-1.256153-.318479-2.221198-1.324655-2.487-2.593-1.08903-4.557723-.302151-9.361863,2.184-13.334c1.285-2.062,3.101-3.308,4.799-3.299.963,0,2.349.45,3.505,2.447.364.63.648,1.305.844,2.007c1.266,4.582-.918,10.08-3.67,13.105-1.075308,1.134039-2.567222,1.779571-4.13,1.787Zm3.404-18.54c-1.395,0-2.945,1.11-4.065,2.906-2.378078,3.79015-3.128931,8.378538-2.083,12.729.19.978.93,1.758,1.9,1.997c1.595779.29332,3.231145-.245522,4.34-1.43c2.587-2.803,4.697-8.091,3.523-12.343-.173964-.641279-.430086-1.257383-.762-1.833-.78-1.338-1.725-2.025-2.816-2.035l-.037.01Z" fill="#231f20"/><path d="M226.808,123.696c-1.836,7.03-3.67,23.04-15.369,14.663-1.197759-.939983-2.243675-2.058752-3.101-3.317-5.762-7.67-4.12-12.51-1.138-20.931c1.285-3.666,2.395-7.332,3.67-10.997c1.276-3.666,3.377-7.112,5.12-10.585-.064.12,5.734.916,11.533-1.714s10.597-5.36,10.597-5.36c1.57,2.345,3.267,4.123,4.102,6.91.77,2.702.992,5.53.651,8.32-.734,6.846-3.477,14.25-6.588,20.363-3.11,6.112-9.477,2.648-9.477,2.648Z" fill="#fff"/><path d="M217.348,141.172c-1.835,0-3.881-.824-6.157-2.456-1.23232-.966451-2.309166-2.116144-3.193-3.409-5.936-7.908-4.147-12.958-1.192-21.315.614-1.76,1.202-3.565,1.77-5.307.615-1.878,1.248-3.812,1.927-5.709c1.024528-2.657149,2.235544-5.238579,3.624-7.725.514-.972,1.028-1.943,1.514-2.914.049085-.099402.136071-.174896.241392-.209502s.220132-.025415.318608.025502c3.803482.446763,7.65687-.148805,11.148-1.723c3.586622-1.649029,7.109172-3.433988,10.56-5.351.194295-.103784.435561-.04476.56.137.395.587.79,1.136,1.184,1.677c1.300133,1.587014,2.306581,3.393336,2.972,5.334.783,2.76,1.01,5.647.67,8.495-.67,6.13-3.018,13.416-6.633,20.5-.764608,1.70179-2.204637,3.007349-3.973,3.602-1.877739.47679-3.861931.299006-5.625-.504-.199431.794567-.388779,1.591632-.568,2.391-1.212,5.251-2.863,12.455-7.24,14.104-.609862.230973-1.255885.351848-1.908.357Zm-1.101-48.176c-.44.917-.918,1.76-1.376,2.64-1.370083,2.454376-2.566028,5.001982-3.579,7.624-.67,1.833-1.302,3.813-1.917,5.682-.615,1.87-1.156,3.556-1.78,5.324-2.964,8.377-4.588,12.986,1.082,20.537.832786,1.225286,1.847821,2.316197,3.01,3.235c2.88,2.071,5.34,2.75,7.34,1.998c3.954-1.494,5.505-8.43,6.716-13.499.248-1.063.468-2.062.698-2.914.035297-.122701.123295-.223371.240173-.274758s.250549-.048179.364827.008758c1.696686.871692,3.648759,1.109274,5.505.67c1.546069-.527118,2.800841-1.677446,3.46-3.172c3.568-7,5.899-14.186,6.55-20.216.331808-2.734281.113529-5.507308-.642-8.156-.651415-1.852636-1.626918-3.574749-2.881-5.086-.33-.449-.67-.916-.99-1.384-3.369847,1.849061-6.803633,3.579129-10.295,5.187-3.605006,1.619217-7.579015,2.239529-11.506,1.796Z" fill="#231f20"/><path d="M224.88,130.496c0,0-5.679-1.292-8.257-6.011-2.578-4.72-1.018-8.34-1.018-8.34s4.954,5.728,11.22,7.579l-1.944,6.772Z" fill="#231f20"/><path d="M224.88,130.9h-.091c-.239-.056-5.89-1.384-8.533-6.205-2.642-4.82-1.11-8.54-1.046-8.697.0559-.127906.173867-.217894.312-.238.136039-.019312.272963.028817.367.129c0,.055,4.964,5.663,11.01,7.46.103562.029705.190969.099544.242797.193997s.06378.205695.033203.309003l-1.9,6.754c-.05011.175427-.211574.295501-.394.293Zm-9.12-13.958c-.533369,2.508366-.103948,5.125584,1.203,7.332c2.1,3.83,6.358,5.333,7.633,5.709l1.716-6.003c-5.074-1.622-9.184-5.599-10.551-7.038Zm12.598-4.792c-1.155429-.089515-2.275354-.440709-3.275-1.027-.19468-.111285-.262285-.35932-.151-.554s.35932-.262285.554-.151c.707.403,2.753,1.32,3.67.723.597-.384-.055-4.15-1.431-8.247-.050081-.138652-.02107-.293556.075792-.404688s.246352-.161027.390545-.130351.260427.137102.303663.278039c.827,2.447,2.579,8.248,1.093,9.164-.369.23-.795.351-1.23.349Z" fill="#231f20"/><path d="M226.68,117.117c-.952185.014732-1.894726-.192401-2.753-.605-2.294-1.137-3.67-3.803-4.148-7.927-.021839-.222085.13669-.421353.358-.45.10728-.01292.215265.017674.299825.084946s.138647.165615.150175.273054c.431,3.83,1.67,6.287,3.67,7.331c3.055,1.512,6.955-.779,6.991-.797.092294-.057006.203637-.0745.308966-.048544s.195795.093181.251034.186544c.113443.19289.052176.441064-.138.559-1.529001.854279-3.239603,1.331808-4.99,1.393Zm.43-18.292c-.212246-.000015-.38829-.164265-.403-.376-.065-.916-.33-1.475-.808-1.714-.917-.476-2.633.385-3.202.761-.186977.11749-.433533.064446-.55565-.119542s-.075236-.431792.10565-.558458c.101-.064,2.45-1.586,4.01-.807.828114.500124,1.311826,1.417137,1.257,2.383.007406.10694-.028099.212423-.098661.293119s-.170367.129955-.277339.136881h-.028Zm10.176,4.545c-.209088.000927-.384335-.157837-.404-.366s-.184-2.016-1.33-2.75c-.991-.65-2.148.834-2.157.853-.065508.085509-.162452.141316-.269294.155023s-.214734-.01582-.299706-.082023c-.086829-.063982-.144387-.1601-.159798-.26685s.012611-.215222.077798-.30115c.56-.733,1.954-1.888,3.257-1.036c1.477.972,1.68,3.281,1.688,3.373.010269.107138-.022745.213931-.091684.296583s-.168075.134294-.275316.143417l-.036-.019Zm-32.27-2.217c-.143533,1.460295.110428,2.93223.735,4.26c1.302,2.411,4.514,3.392,7.138,2.613c6.854-2.026,10.148-15.048,4.964-20.162-4.817-4.747-10.286,2.75-11.414,7.176-.523,2.08-1.349,4.005-1.422,6.113Z" fill="#231f20"/><path d="M211.054,108.695c-2.304574.060703-4.464972-1.118147-5.661-3.089-.668492-1.389871-.938495-2.937887-.78-4.472.126-1.534.434-3.047.917-4.509.166-.559.33-1.118.477-1.677.799-3.079,3.762-7.853,7.258-8.816c1.755726-.464761,3.623758.094683,4.835,1.448c2.505,2.466,3.322,6.929,2.138,11.648-1.183,4.72-3.964,8.248-7.267,9.164-.622222.187817-1.267184.28976-1.917.303Zm-5.634-7.524c-.145909,1.390774.092039,2.794942.688,4.06c1.4229,2.218767,4.157506,3.206833,6.67,2.41c3.038-.917,5.607-4.197,6.708-8.605c1.1-4.408.376-8.615-1.918-10.878-1.003746-1.154331-2.574504-1.64086-4.055-1.256-3.156.917-5.955,5.435-6.689,8.248-.150478.570683-.309496,1.13908-.477,1.705-.475896,1.39722-.784057,2.846047-.918,4.316h-.009Z" fill="#231f20"/><path d="M243.12,109.208c-.331729.000884-.638129-.177271-.801462-.466005s-.158186-.643126.013462-.926995c.1-.165,10.276-16.88,12.02-27.3.632-3.776-1.047-7.606-4.726-10.805-5.028-4.362-12.533-6.314-17.846-4.637-9.45,2.988-14.478,24.743-14.533,24.927-.125846.477815-.607314.770302-1.089357.661774s-.79171-.579129-.700643-1.064774c.212-.917,5.322-22.975,15.773-26.274c5.973-1.879,14.029.174,19.598,5.003c4.184,3.666,6.083,8.065,5.34,12.491-1.835,10.777-11.845,27.254-12.267,27.951-.165975.272141-.461242.438702-.78.44Z" fill="#231f20"/><path d="M292.868,239c-3.288939-.010707-6.555656-.539523-9.68-1.567-3.722819-1.318829-7.167033-3.32038-10.156-5.902-5.092-4.115-9.579-9.027-13.919-13.746-2.752-3.015-5.597-6.13-8.57-9.008-9.312-9.018-18.56-13.82-27.525-14.26-12.056-.605-22.745,6.278-32.489,13.801-.917.733-1.908,1.494-2.881,2.264-7.881,6.24-16.818,13.306-27.828,11.648-7.505-1.128-13.332-6.296-16.892-10.43-8.762-10.18-12.845-24.743-10.817-38.865c2.147-15.212,10.634-25.934,25.232-31.873c12.083-4.911,23.488-11.785,34.526-18.429l.091-.045c6.836-4.124,14.093-9.403,16.048-17.32.060751-.253223.315277-.409251.5685-.3485s.409251.315277.3485.5685c-2.037,8.247-9.469,13.663-16.47,17.878l-.082.055c-11.065,6.663-22.506,13.554-34.654,18.494-14.277,5.8-22.571,16.275-24.672,31.158-1.964,13.856,2,28.106,10.57,38.086c3.459,4.023,9.101,9.045,16.331,10.127c10.616,1.603,19.011-5.04,27.122-11.456l2.89-2.272c9.891-7.634,20.745-14.617,33.095-13.994c9.175.458,18.625,5.343,28.103,14.516c2.991,2.905,5.845,6.03,8.607,9.054c4.312,4.729,8.771,9.614,13.817,13.682c2.900372,2.509202,6.241756,4.457608,9.854,5.746c12.396,3.996,24.773.064,36.875-11.693c17.956-17.485,28.076-43.988,27.755-72.8-.147-13.453-2.66-23.965-7.689-32.148-2.027-3.309-4.587-6.993-8.753-8.835-2.128-.916-7.12-1.264-9.046,1.44-.734,1.035-.808,2.254-.918,3.802c0,.67-.092,1.42-.193,2.236-.044614.242061-.270824.406904-.514915.375228s-.420733-.248797-.402085-.494228c.11-.788.147-1.493.193-2.172.1-1.63.192-3.033,1.082-4.28c2.239-3.143,7.726-2.813,10.166-1.74c4.441,1.942,7.056,5.764,9.175,9.164c5.12,8.33,7.67,18.997,7.827,32.624.32,29.032-9.891,55.81-28.03,73.46-9.194,8.99-18.617,13.49-28.095,13.499ZM204.172,37.022c-.132645-.001349-.258738-.057873-.348-.156-.175525-.181118-.175525-.468882,0-.65c2.018-1.751,4.019-2.52,5.954-2.301c1.643018.223993,3.135778,1.074644,4.166,2.374.145.206.1.49-.1.641-.098516.072042-.221623.10198-.342219.083225s-.228797-.084667-.300781-.183225c-.877911-1.094171-2.135745-1.817524-3.523-2.026-1.67-.193-3.432.513-5.249,2.09-.069392.069584-.159655.11454-.257.128Z" fill="#231f20"/><path d="M231.505,185.39c-.063341.012986-.128659.012986-.192,0-.20477-.108988-.286183-.360751-.184-.569l11.579-23.185c.110718-.191653.351879-.263416.549367-.163476s.282488.33676.193633.539476l-11.57,23.148c-.070527.142729-.216812.232212-.376.23Zm-21.57,4.518c-13.259,0-28.838-4.29-29.7-4.528-.163875-.020475-.300747-.134661-.350265-.292212s-.002582-.329508.120114-.440052.298599-.139358.450151-.073736c.284.073,28.103,7.744,40.967,2.84.218-.08.46.031.541.248.041561.102043.039529.216653-.005623.317159s-.129486.178142-.233377.214841c-3.79886,1.25923-7.789842,1.839429-11.79,1.714Zm110.468-75.596h2v2.969h-2Z" fill="#231f20"/><path d="M322.403,117.685h-2c-.224625.000053-.408105-.179429-.413-.404v-2.969c-.000033-.108638.043795-.212687.121549-.288559s.182847-.117137.291451-.114441h2c.223,0,.404.18.404.403v2.97c0,.107056-.042596.209712-.118389.285318s-.178556.117948-.285611.117682Zm-1.596-.816h1.193v-2.153h-1.193v2.153Z" fill="#231f20"/><path d="M213.026,105.661l-.66-.641c4.183495-4.15568,5.142271-10.565006,2.358-15.763l.789-.467c2.987527,5.555834,1.976611,12.413559-2.487,16.871Zm30.278,12.024l-.853-.34c2.68-6.9,2-11.995,2-12.041l.918-.128c.018.192.706,5.36-2.065,12.509ZM169.236,79.78l6.647-6.787.655.64-6.646,6.788Zm120.171,89.121l.403-.823l7.062,3.453-.403.824Z" fill="#fff"/><path id="eb7Hc0iIAwy39" d="M53.797,105.082c-.386-.091-.799-.155-1.175-.284-1.201799-.297089-2.157544-1.206453-2.514-2.392-.254932-1.025526-.054424-2.111187.55-2.978c1.012494-1.533357,2.612703-2.581109,4.423-2.896c1.184-.266,1.716-.201,3.597.257v-22.069l21.727-4.343v26.988c.055183,1.403624-.536803,2.754944-1.606,3.666-1.755532,1.699989-4.290341,2.323184-6.634,1.631-1.213781-.269097-2.180395-1.185342-2.514-2.383-.269672-1.02103-.071039-2.109111.542-2.969c1.011679-1.541971,2.621054-2.59169,4.44-2.896c1.186634-.259249,2.422907-.170001,3.56.257v-15.175l-1.541.302c-5.158257,1.03672-10.317928,2.066387-15.479,3.089-.284.055-.33.165-.33.421v16.093c.053929,1.671152-.744554,3.255313-2.12,4.206-1.012724.764841-2.207998,1.251294-3.467,1.411-.065641.017167-.130108.038545-.193.064h-1.266ZM397.605,168.33v-.523c-.056778-.48039-.236957-.9379-.523-1.328-.465249-.677469-1.06843-1.248958-1.77-1.677-.702053-.44995-1.483812-.761228-2.303-.917-.521-.1-1.057-.1-1.578,0h-.138c-.005046-.060896-.005046-.122104,0-.183.092-.358.183-.706.284-1.045l1.835-6.415c.67-2.328,1.35-4.655,2.019-6.983v-.137l-.642-.055c-1.757729-.093894-3.513385.219591-5.13.916-1.509675.623237-2.770832,1.728287-3.587,3.143-.23.404-.403.834-.596,1.265-.129.275-.23.568-.349.852-.005161.039834-.005161.080166,0,.12l.23-.138c.728-.478,1.492-.9,2.284-1.265c1.223042-.548997,2.562556-.788049,3.9-.696.575829.056438,1.142657.182698,1.688.376-.004124.045574-.004124.091426,0,.137-1.113,3.861-2.217,7.72-3.312,11.574-.014142.069622-.014142.141378,0,.211.078.682.367,1.322.825,1.833.580712.708543,1.314869,1.275832,2.147,1.659l.716.311.66.193h.184c.545183.109899,1.106817.109899,1.652,0c.459-.065.879-.293,1.183-.642.1-.139.191-.282.276-.43l.045-.156Zm-326.47,9.016c0-.22,0-.45.102-.67.16-.604.477-1.157.917-1.603.74066-.77192,1.63442-1.380589,2.624-1.787.990861-.434956,2.05633-.67467,3.138-.706.69014-.020986,1.378077.087903,2.028.321l.174.064c.005-.079.005-.159,0-.238c0-.467-.092-.916-.147-1.393-.348-2.89-.7-5.77-1.055-8.642-.385-3.134-.78-6.259-1.165-9.384v-.183c.284,0,.569,0,.835.064c2.281.227,4.479.977,6.423,2.19c1.806142,1.110747,3.195832,2.785826,3.954,4.766.2.57.369,1.152.505,1.74.11.386.183.78.275,1.174.014097.051045.014097.104955,0,.156l-.266-.23c-.840165-.761983-1.735982-1.460252-2.68-2.089-1.452836-.954285-3.120951-1.530718-4.853-1.677-.75175-.049125-1.506685-.006139-2.248.128.005.058.005.117,0,.175.612,5.18,1.239,10.373,1.881,15.579.018197.087396.018197.177604,0,.265-.234386.875062-.738177,1.654188-1.44,2.227-.889673.794368-1.95151,1.371498-3.102,1.686-.32.101-.651.175-.972.257l-.918.11h-.145c-.722462.046096-1.446818-.053545-2.13-.293-.571832-.171309-1.061027-.5463-1.375-1.054-.106764-.197705-.199007-.402913-.276-.614l-.082-.34Zm219.697-81.28c.119-.238.22-.485.357-.705.428268-.622893,1.010022-1.124738,1.689-1.457c1.141877-.579802,2.391443-.916879,3.67-.99c1.288124-.102056,2.583867.043915,3.817.43.79057.243824,1.525974.63955,2.165,1.165l.174.137c.044439-.085249.081249-.174263.11-.266.138-.54.266-1.081.386-1.631l2.202-10.172c.789-3.666,1.575-7.35,2.358-11.052l.046-.22c.32.137.624.256.917.394c2.476744,1.151532,4.655544,2.857141,6.368,4.985c1.610984,1.960973,2.527024,4.400348,2.605,6.937c0,.72-.036,1.439-.11,2.154c0,.486-.1.916-.156,1.439-.005813.05841-.024605.114784-.055.165l-.22-.358c-.646419-1.187711-1.382558-2.324347-2.202-3.4-1.264208-1.6524-2.923806-2.960202-4.826-3.803-.827933-.350659-1.697322-.593966-2.587-.724h-.065c-.009955.071399-.025333.141936-.046.211l-3.963,18.274c-.021681.107014-.06232.20929-.12.302-.608013.894692-1.480294,1.577133-2.495,1.952-1.318565.542086-2.743197.777017-4.166.687-.403,0-.798-.055-1.202-.091l-1.055-.22-.174-.074c-.832146-.230513-1.609289-.626397-2.285-1.164-.574291-.424318-.980464-1.03765-1.147-1.732-.03534-.264356-.056703-.530392-.064-.797l.074-.376Z" fill="#cd7df3"/><path id="eb7Hc0iIAwy40" d="M38.092,50.8c-4.725,0-4.734,7.331,0,7.331c4.735,0,4.735-7.33,0-7.33Zm357,8c-4.725,0-4.734,7.331,0,7.331c4.735,0,4.735-7.33,0-7.33Zm-60.38-16.883c-.087636-.302719-.247957-.579419-.467-.806l-.376-.284c-.278053-.164956-.594716-.253607-.918-.257h-.514c-.246024-.01092-.4903.04617-.706.165-.23.07-.435.2-.596.376-.172062.16126-.301574.36257-.377.586-.115.217-.169.461-.156.706l.065.495c.086.304.247.58.468.806l.376.285c.279.161.595.246.917.247h.514c.245.014.49-.04.707-.156.226-.075.43-.204.596-.376.323431-.358083.511604-.817906.532-1.3-.018-.157-.046-.322-.064-.487Zm-219.15-8.568c-2.955,0-2.964,4.582,0,4.582c2.963,0,2.954-4.582,0-4.582Zm264.333,44.49c-2.955,0-2.955,4.583,0,4.583c2.954,0,2.954-4.582,0-4.582Z" transform="matrix(.996052 0 0 1.159893 0.855113-9.255487)" fill="#698dff"/></g><mask id="eb7Hc0iIAwy41" mask-type="luminance"><use width="450" height="220" xlink:href="#eb7Hc0iIAwy2" fill="#fff" fill-rule="evenodd"/></mask></g></g><script><![CDATA[!function(t,n){"object"==typeof exports&&"undefined"!=typeof module?module.exports=n():"function"==typeof define&&define.amd?define(n):((t="undefined"!=typeof globalThis?globalThis:t||self).__SVGATOR_PLAYER__=t.__SVGATOR_PLAYER__||{},t.__SVGATOR_PLAYER__["5c7f360c"]=n())}(this,(function(){"use strict";function t(t,n){var r=Object.keys(t);if(Object.getOwnPropertySymbols){var e=Object.getOwnPropertySymbols(t);n&&(e=e.filter((function(n){return Object.getOwnPropertyDescriptor(t,n).enumerable}))),r.push.apply(r,e)}return r}function n(n){for(var r=1;r<arguments.length;r++){var e=null!=arguments[r]?arguments[r]:{};r%2?t(Object(e),!0).forEach((function(t){u(n,t,e[t])})):Object.getOwnPropertyDescriptors?Object.defineProperties(n,Object.getOwnPropertyDescriptors(e)):t(Object(e)).forEach((function(t){Object.defineProperty(n,t,Object.getOwnPropertyDescriptor(e,t))}))}return n}function r(t){return(r="function"==typeof Symbol&&"symbol"==typeof Symbol.iterator?function(t){return typeof t}:function(t){return t&&"function"==typeof Symbol&&t.constructor===Symbol&&t!==Symbol.prototype?"symbol":typeof t})(t)}function e(t,n){if(!(t instanceof n))throw new TypeError("Cannot call a class as a function")}function i(t,n){for(var r=0;r<n.length;r++){var e=n[r];e.enumerable=e.enumerable||!1,e.configurable=!0,"value"in e&&(e.writable=!0),Object.defineProperty(t,e.key,e)}}function o(t,n,r){return n&&i(t.prototype,n),r&&i(t,r),t}function u(t,n,r){return n in t?Object.defineProperty(t,n,{value:r,enumerable:!0,configurable:!0,writable:!0}):t[n]=r,t}function a(t){return(a=Object.setPrototypeOf?Object.getPrototypeOf:function(t){return t.__proto__||Object.getPrototypeOf(t)})(t)}function l(t,n){return(l=Object.setPrototypeOf||function(t,n){return t.__proto__=n,t})(t,n)}function f(){if("undefined"==typeof Reflect||!Reflect.construct)return!1;if(Reflect.construct.sham)return!1;if("function"==typeof Proxy)return!0;try{return Boolean.prototype.valueOf.call(Reflect.construct(Boolean,[],(function(){}))),!0}catch(t){return!1}}function s(t,n,r){return(s=f()?Reflect.construct:function(t,n,r){var e=[null];e.push.apply(e,n);var i=new(Function.bind.apply(t,e));return r&&l(i,r.prototype),i}).apply(null,arguments)}function c(t,n){if(n&&("object"==typeof n||"function"==typeof n))return n;if(void 0!==n)throw new TypeError("Derived constructors may only return object or undefined");return function(t){if(void 0===t)throw new ReferenceError("this hasn't been initialised - super() hasn't been called");return t}(t)}function h(t,n,r){return(h="undefined"!=typeof Reflect&&Reflect.get?Reflect.get:function(t,n,r){var e=function(t,n){for(;!Object.prototype.hasOwnProperty.call(t,n)&&null!==(t=a(t)););return t}(t,n);if(e){var i=Object.getOwnPropertyDescriptor(e,n);return i.get?i.get.call(r):i.value}})(t,n,r||t)}function v(t){return function(t){if(Array.isArray(t))return y(t)}(t)||function(t){if("undefined"!=typeof Symbol&&null!=t[Symbol.iterator]||null!=t["@@iterator"])return Array.from(t)}(t)||function(t,n){if(!t)return;if("string"==typeof t)return y(t,n);var r=Object.prototype.toString.call(t).slice(8,-1);"Object"===r&&t.constructor&&(r=t.constructor.name);if("Map"===r||"Set"===r)return Array.from(t);if("Arguments"===r||/^(?:Ui|I)nt(?:8|16|32)(?:Clamped)?Array$/.test(r))return y(t,n)}(t)||function(){throw new TypeError("Invalid attempt to spread non-iterable instance.\nIn order to be iterable, non-array objects must have a [Symbol.iterator]() method.")}()}function y(t,n){(null==n||n>t.length)&&(n=t.length);for(var r=0,e=new Array(n);r<n;r++)e[r]=t[r];return e}var g=d(Math.pow(10,-6));function d(t){var n=arguments.length>1&&void 0!==arguments[1]?arguments[1]:6;if(Number.isInteger(t))return t;var r=Math.pow(10,n);return Math.round((+t+Number.EPSILON)*r)/r}function p(t,n){var r=arguments.length>2&&void 0!==arguments[2]?arguments[2]:g;return Math.abs(t-n)<r}var m=Math.PI/180;function b(t){return t}function w(t,n,r){var e=1-r;return 3*r*e*(t*e+n*r)+r*r*r}function A(){var t=arguments.length>0&&void 0!==arguments[0]?arguments[0]:0,n=arguments.length>1&&void 0!==arguments[1]?arguments[1]:0,r=arguments.length>2&&void 0!==arguments[2]?arguments[2]:1,e=arguments.length>3&&void 0!==arguments[3]?arguments[3]:1;return t<0||t>1||r<0||r>1?null:p(t,n)&&p(r,e)?b:function(i){if(i<=0)return t>0?i*n/t:0===n&&r>0?i*e/r:0;if(i>=1)return r<1?1+(i-1)*(e-1)/(r-1):1===r&&t<1?1+(i-1)*(n-1)/(t-1):1;for(var o,u=0,a=1;u<a;){var l=w(t,r,o=(u+a)/2);if(p(i,l))break;l<i?u=o:a=o}return w(n,e,o)}}function x(){return 1}function k(t){return 1===t?1:0}function S(){var t=arguments.length>0&&void 0!==arguments[0]?arguments[0]:1,n=arguments.length>1&&void 0!==arguments[1]?arguments[1]:0;if(1===t){if(0===n)return k;if(1===n)return x}var r=1/t;return function(t){return t>=1?1:(t+=n*r)-t%r}}var _=Math.sin,O=Math.cos,j=Math.acos,M=Math.asin,P=Math.tan,E=Math.atan2,I=Math.PI/180,R=180/Math.PI,F=Math.sqrt,N=function(){function t(){var n=arguments.length>0&&void 0!==arguments[0]?arguments[0]:1,r=arguments.length>1&&void 0!==arguments[1]?arguments[1]:0,i=arguments.length>2&&void 0!==arguments[2]?arguments[2]:0,o=arguments.length>3&&void 0!==arguments[3]?arguments[3]:1,u=arguments.length>4&&void 0!==arguments[4]?arguments[4]:0,a=arguments.length>5&&void 0!==arguments[5]?arguments[5]:0;e(this,t),this.m=[n,r,i,o,u,a],this.i=null,this.w=null,this.s=null}return o(t,[{key:"determinant",get:function(){var t=this.m;return t[0]*t[3]-t[1]*t[2]}},{key:"isIdentity",get:function(){if(null===this.i){var t=this.m;this.i=1===t[0]&&0===t[1]&&0===t[2]&&1===t[3]&&0===t[4]&&0===t[5]}return this.i}},{key:"point",value:function(t,n){var r=this.m;return{x:r[0]*t+r[2]*n+r[4],y:r[1]*t+r[3]*n+r[5]}}},{key:"translateSelf",value:function(){var t=arguments.length>0&&void 0!==arguments[0]?arguments[0]:0,n=arguments.length>1&&void 0!==arguments[1]?arguments[1]:0;if(!t&&!n)return this;var r=this.m;return r[4]+=r[0]*t+r[2]*n,r[5]+=r[1]*t+r[3]*n,this.w=this.s=this.i=null,this}},{key:"rotateSelf",value:function(){var t=arguments.length>0&&void 0!==arguments[0]?arguments[0]:0;if(t%=360){var n=_(t*=I),r=O(t),e=this.m,i=e[0],o=e[1];e[0]=i*r+e[2]*n,e[1]=o*r+e[3]*n,e[2]=e[2]*r-i*n,e[3]=e[3]*r-o*n,this.w=this.s=this.i=null}return this}},{key:"scaleSelf",value:function(){var t=arguments.length>0&&void 0!==arguments[0]?arguments[0]:1,n=arguments.length>1&&void 0!==arguments[1]?arguments[1]:1;if(1!==t||1!==n){var r=this.m;r[0]*=t,r[1]*=t,r[2]*=n,r[3]*=n,this.w=this.s=this.i=null}return this}},{key:"skewSelf",value:function(t,n){if(n%=360,(t%=360)||n){var r=this.m,e=r[0],i=r[1],o=r[2],u=r[3];t&&(t=P(t*I),r[2]+=e*t,r[3]+=i*t),n&&(n=P(n*I),r[0]+=o*n,r[1]+=u*n),this.w=this.s=this.i=null}return this}},{key:"resetSelf",value:function(){var t=arguments.length>0&&void 0!==arguments[0]?arguments[0]:1,n=arguments.length>1&&void 0!==arguments[1]?arguments[1]:0,r=arguments.length>2&&void 0!==arguments[2]?arguments[2]:0,e=arguments.length>3&&void 0!==arguments[3]?arguments[3]:1,i=arguments.length>4&&void 0!==arguments[4]?arguments[4]:0,o=arguments.length>5&&void 0!==arguments[5]?arguments[5]:0,u=this.m;return u[0]=t,u[1]=n,u[2]=r,u[3]=e,u[4]=i,u[5]=o,this.w=this.s=this.i=null,this}},{key:"recomposeSelf",value:function(){var t=arguments.length>0&&void 0!==arguments[0]?arguments[0]:null,n=arguments.length>1&&void 0!==arguments[1]?arguments[1]:null,r=arguments.length>2&&void 0!==arguments[2]?arguments[2]:null,e=arguments.length>3&&void 0!==arguments[3]?arguments[3]:null,i=arguments.length>4&&void 0!==arguments[4]?arguments[4]:null;return this.isIdentity||this.resetSelf(),t&&(t.x||t.y)&&this.translateSelf(t.x,t.y),n&&this.rotateSelf(n),r&&(r.x&&this.skewSelf(r.x,0),r.y&&this.skewSelf(0,r.y)),!e||1===e.x&&1===e.y||this.scaleSelf(e.x,e.y),i&&(i.x||i.y)&&this.translateSelf(i.x,i.y),this}},{key:"decompose",value:function(){var t=arguments.length>0&&void 0!==arguments[0]?arguments[0]:0,n=arguments.length>1&&void 0!==arguments[1]?arguments[1]:0,r=this.m,e=r[0]*r[0]+r[1]*r[1],i=[[r[0],r[1]],[r[2],r[3]]],o=F(e);if(0===o)return{origin:{x:d(r[4]),y:d(r[5])},translate:{x:d(t),y:d(n)},scale:{x:0,y:0},skew:{x:0,y:0},rotate:0};i[0][0]/=o,i[0][1]/=o;var u=r[0]*r[3]-r[1]*r[2]<0;u&&(o=-o);var a=i[0][0]*i[1][0]+i[0][1]*i[1][1];i[1][0]-=i[0][0]*a,i[1][1]-=i[0][1]*a;var l=F(i[1][0]*i[1][0]+i[1][1]*i[1][1]);if(0===l)return{origin:{x:d(r[4]),y:d(r[5])},translate:{x:d(t),y:d(n)},scale:{x:d(o),y:0},skew:{x:0,y:0},rotate:0};i[1][0]/=l,i[1][1]/=l,a/=l;var f=0;return i[1][1]<0?(f=j(i[1][1])*R,i[0][1]<0&&(f=360-f)):f=M(i[0][1])*R,u&&(f=-f),a=E(a,F(i[0][0]*i[0][0]+i[0][1]*i[0][1]))*R,u&&(a=-a),{origin:{x:d(r[4]),y:d(r[5])},translate:{x:d(t),y:d(n)},scale:{x:d(o),y:d(l)},skew:{x:d(a),y:0},rotate:d(f)}}},{key:"clone",value:function(){var t=this.m;return new this.constructor(t[0],t[1],t[2],t[3],t[4],t[5])}},{key:"toString",value:function(){var t=arguments.length>0&&void 0!==arguments[0]?arguments[0]:" ";if(null===this.s){var n=this.m.map((function(t){return d(t)}));1===n[0]&&0===n[1]&&0===n[2]&&1===n[3]?this.s="translate("+n[4]+t+n[5]+")":this.s="matrix("+n.join(t)+")"}return this.s}}],[{key:"create",value:function(t){return t?Array.isArray(t)?s(this,v(t)):t instanceof this?t.clone():(new this).recomposeSelf(t.origin,t.rotate,t.skew,t.scale,t.translate):new this}}]),t}();function T(t,n,r){return t>=.5?r:n}function B(t,n,r){return 0===t||n===r?n:t*(r-n)+n}function q(t,n,r){var e=B(t,n,r);return e<=0?0:e}function L(t,n,r){var e=B(t,n,r);return e<=0?0:e>=1?1:e}function C(t,n,r){return 0===t?n:1===t?r:{x:B(t,n.x,r.x),y:B(t,n.y,r.y)}}function D(t,n,r){var e=function(t,n,r){return Math.round(B(t,n,r))}(t,n,r);return e<=0?0:e>=255?255:e}function z(t,n,r){return 0===t?n:1===t?r:{r:D(t,n.r,r.r),g:D(t,n.g,r.g),b:D(t,n.b,r.b),a:B(t,null==n.a?1:n.a,null==r.a?1:r.a)}}function V(t,n){for(var r=[],e=0;e<t;e++)r.push(n);return r}function G(t,n){if(--n<=0)return t;var r=(t=Object.assign([],t)).length;do{for(var e=0;e<r;e++)t.push(t[e])}while(--n>0);return t}var Y,$=function(){function t(n){e(this,t),this.list=n,this.length=n.length}return o(t,[{key:"setAttribute",value:function(t,n){for(var r=this.list,e=0;e<this.length;e++)r[e].setAttribute(t,n)}},{key:"removeAttribute",value:function(t){for(var n=this.list,r=0;r<this.length;r++)n[r].removeAttribute(t)}},{key:"style",value:function(t,n){for(var r=this.list,e=0;e<this.length;e++)r[e].style[t]=n}}]),t}(),U=/-./g,Q=function(t,n){return n.toUpperCase()};function H(t){return"function"==typeof t?t:T}function J(t){return t?"function"==typeof t?t:Array.isArray(t)?function(t){var n=arguments.length>1&&void 0!==arguments[1]?arguments[1]:b;if(!Array.isArray(t))return n;switch(t.length){case 1:return S(t[0])||n;case 2:return S(t[0],t[1])||n;case 4:return A(t[0],t[1],t[2],t[3])||n}return n}(t,null):function(t,n){var r=arguments.length>2&&void 0!==arguments[2]?arguments[2]:b;switch(t){case"linear":return b;case"steps":return S(n.steps||1,n.jump||0)||r;case"bezier":case"cubic-bezier":return A(n.x1||0,n.y1||0,n.x2||0,n.y2||0)||r}return r}(t.type,t.value,null):null}function Z(t,n,r){var e=arguments.length>3&&void 0!==arguments[3]&&arguments[3],i=n.length-1;if(t<=n[0].t)return e?[0,0,n[0].v]:n[0].v;if(t>=n[i].t)return e?[i,1,n[i].v]:n[i].v;var o,u=n[0],a=null;for(o=1;o<=i;o++){if(!(t>n[o].t)){a=n[o];break}u=n[o]}return null==a?e?[i,1,n[i].v]:n[i].v:u.t===a.t?e?[o,1,a.v]:a.v:(t=(t-u.t)/(a.t-u.t),u.e&&(t=u.e(t)),e?[o,t,r(t,u.v,a.v)]:r(t,u.v,a.v))}function K(t,n){var r=arguments.length>2&&void 0!==arguments[2]?arguments[2]:null;return t&&t.length?"function"!=typeof n?null:("function"!=typeof r&&(r=null),function(e){var i=Z(e,t,n);return null!=i&&r&&(i=r(i)),i}):null}function W(t,n){return t.t-n.t}function X(t,n,e,i,o){var u,a="@"===e[0],l="#"===e[0],f=Y[e],s=T;switch(a?(u=e.substr(1),e=u.replace(U,Q)):l&&(e=e.substr(1)),r(f)){case"function":if(s=f(i,o,Z,J,e,a,n,t),l)return s;break;case"string":s=K(i,H(f));break;case"object":if((s=K(i,H(f.i),f.f))&&"function"==typeof f.u)return f.u(n,s,e,a,t)}return s?function(t,n,r){if(arguments.length>3&&void 0!==arguments[3]&&arguments[3])return t instanceof $?function(e){return t.style(n,r(e))}:function(e){return t.style[n]=r(e)};if(Array.isArray(n)){var e=n.length;return function(i){var o=r(i);if(null==o)for(var u=0;u<e;u++)t[u].removeAttribute(n);else for(var a=0;a<e;a++)t[a].setAttribute(n,o)}}return function(e){var i=r(e);null==i?t.removeAttribute(n):t.setAttribute(n,i)}}(n,e,s,a):null}function tt(t,n,e,i){if(!i||"object"!==r(i))return null;var o=null,u=null;return Array.isArray(i)?u=function(t){if(!t||!t.length)return null;for(var n=0;n<t.length;n++)t[n].e&&(t[n].e=J(t[n].e));return t.sort(W)}(i):(u=i.keys,o=i.data||null),u?X(t,n,e,u,o):null}function nt(t,n,r){if(!r)return null;var e=[];for(var i in r)if(r.hasOwnProperty(i)){var o=tt(t,n,i,r[i]);o&&e.push(o)}return e.length?e:null}function rt(t,n){if(!n.duration||n.duration<0)return null;var r=function(t,n){if(!n)return null;var r=[];if(Array.isArray(n))for(var e=n.length,i=0;i<e;i++){var o=n[i];if(2===o.length){var u=null;if("string"==typeof o[0])u=t.getElementById(o[0]);else if(Array.isArray(o[0])){u=[];for(var a=0;a<o[0].length;a++)if("string"==typeof o[0][a]){var l=t.getElementById(o[0][a]);l&&u.push(l)}u=u.length?1===u.length?u[0]:new $(u):null}if(u){var f=nt(t,u,o[1]);f&&(r=r.concat(f))}}}else for(var s in n)if(n.hasOwnProperty(s)){var c=t.getElementById(s);if(c){var h=nt(t,c,n[s]);h&&(r=r.concat(h))}}return r.length?r:null}(t,n.elements);return r?function(t,n){var r=arguments.length>2&&void 0!==arguments[2]?arguments[2]:1/0,e=arguments.length>3&&void 0!==arguments[3]?arguments[3]:1,i=arguments.length>4&&void 0!==arguments[4]&&arguments[4],o=arguments.length>5&&void 0!==arguments[5]?arguments[5]:1,u=t.length,a=e>0?n:0;i&&r%2==0&&(a=n-a);var l=null;return function(f,s){var c=f%n,h=1+(f-c)/n;s*=e,i&&h%2==0&&(s=-s);var v=!1;if(h>r)c=a,v=!0,-1===o&&(c=e>0?0:n);else if(s<0&&(c=n-c),c===l)return!1;l=c;for(var y=0;y<u;y++)t[y](c);return v}}(r,n.duration,n.iterations||1/0,n.direction||1,!!n.alternate,n.fill||1):null}function et(t){return+("0x"+(t.replace(/[^0-9a-fA-F]+/g,"")||27))}function it(t,n,r){return!t||!r||n>t.length?t:t.substring(0,n)+it(t.substring(n+1),r,r)}function ot(t){var n=arguments.length>1&&void 0!==arguments[1]?arguments[1]:27;return!t||t%n?t%n:ot(t/n,n)}function ut(t,n,r){if(t&&t.length){var e=et(r),i=et(n),o=ot(e)+5,u=it(t,ot(e,5),o);return u=u.replace(/\x7c$/g,"==").replace(/\x2f$/g,"="),u=function(t,n,r){var e=+("0x"+t.substring(0,4));t=t.substring(4);for(var i=n%e+r%27,o=[],u=0;u<t.length;u+=2)if("|"!==t[u]){var a=+("0x"+t[u]+t[u+1])-i;o.push(a)}else{var l=+("0x"+t.substring(u+1,u+1+4))-i;u+=3,o.push(l)}return String.fromCharCode.apply(String,o)}(u=(u=atob(u)).replace(/[\x41-\x5A]/g,""),i,e),u=JSON.parse(u)}}Number.isInteger||(Number.isInteger=function(t){return"number"==typeof t&&isFinite(t)&&Math.floor(t)===t}),Number.EPSILON||(Number.EPSILON=2220446049250313e-31);var at=function(){function t(n,r){var i=arguments.length>2&&void 0!==arguments[2]?arguments[2]:{};e(this,t),this._id=0,this._running=!1,this._rollingBack=!1,this._animations=n,this.duration=r.duration,this.alternate=r.alternate,this.fill=r.fill,this.iterations=r.iterations,this.direction=i.direction||1,this.speed=i.speed||1,this.fps=i.fps||100,this.offset=i.offset||0,this.rollbackStartOffset=0}return o(t,[{key:"_rollback",value:function(){var t=this,n=1/0,r=null;this.rollbackStartOffset=this.offset,this._rollingBack||(this._rollingBack=!0,this._running=!0);this._id=window.requestAnimationFrame((function e(i){if(t._rollingBack){null==r&&(r=i);var o=i-r,u=t.rollbackStartOffset-o,a=Math.round(u*t.speed);if(a>t.duration&&n!=1/0){var l=!!t.alternate&&a/t.duration%2>1,f=a%t.duration;a=(f+=l?t.duration:0)||t.duration}var s=t.fps?1e3/t.fps:0,c=Math.max(0,a);if(c<n-s){t.offset=c,n=c;for(var h=t._animations,v=h.length,y=0;y<v;y++)h[y](c,t.direction)}var g=!1;if(t.iterations>0&&-1===t.fill){var d=t.iterations*t.duration,p=d==a;a=p?0:a,t.offset=p?0:t.offset,g=a>d}a>0&&t.offset>=a&&!g?t._id=window.requestAnimationFrame(e):t.stop()}}))}},{key:"_start",value:function(){var t=this,n=arguments.length>0&&void 0!==arguments[0]?arguments[0]:0,r=-1/0,e=null,i={},o=function o(u){t._running=!0,null==e&&(e=u);var a=Math.round((u-e+n)*t.speed),l=t.fps?1e3/t.fps:0;if(a>r+l&&!t._rollingBack){t.offset=a,r=a;for(var f=t._animations,s=f.length,c=0,h=0;h<s;h++)i[h]?c++:(i[h]=f[h](a,t.direction),i[h]&&c++);if(c===s)return void t._stop()}t._id=window.requestAnimationFrame(o)};this._id=window.requestAnimationFrame(o)}},{key:"_stop",value:function(){this._id&&window.cancelAnimationFrame(this._id),this._running=!1,this._rollingBack=!1}},{key:"play",value:function(){!this._rollingBack&&this._running||(this._rollingBack=!1,this.rollbackStartOffset>this.duration&&(this.offset=this.rollbackStartOffset-(this.rollbackStartOffset-this.offset)%this.duration,this.rollbackStartOffset=0),this._start(this.offset))}},{key:"stop",value:function(){this._stop(),this.offset=0,this.rollbackStartOffset=0;var t=this.direction,n=this._animations;window.requestAnimationFrame((function(){for(var r=0;r<n.length;r++)n[r](0,t)}))}},{key:"reachedToEnd",value:function(){return this.iterations>0&&this.offset>=this.iterations*this.duration}},{key:"restart",value:function(){this._stop(),this.offset=0,this._start()}},{key:"pause",value:function(){this._stop()}},{key:"reverse",value:function(){this.direction=-this.direction}}],[{key:"build",value:function(r,e){return delete r.animationSettings,r.options=ut(r.options,r.root,"5c7f360c"),r.animations.map((function(t){var e=ut(t.s,r.root,"5c7f360c");for(var i in delete t.s,r.animationSettings||(r.animationSettings=n({},e)),e)e.hasOwnProperty(i)&&(t[i]=e[i])})),(r=function(t,n){if(Y=n,!t||!t.root||!Array.isArray(t.animations))return null;for(var r=document.getElementsByTagName("svg"),e=!1,i=0;i<r.length;i++)if(r[i].id===t.root&&!r[i].svgatorAnimation){(e=r[i]).svgatorAnimation=!0;break}if(!e)return null;var o=t.animations.map((function(t){return rt(e,t)})).filter((function(t){return!!t}));return o.length?{element:e,animations:o,animationSettings:t.animationSettings,options:t.options||void 0}:null}(r,e))?{el:r.element,options:r.options||{},player:new t(r.animations,r.animationSettings,r.options)}:null}},{key:"push",value:function(t){return this.build(t)}},{key:"init",value:function(){var t=this,n=window.__SVGATOR_PLAYER__&&window.__SVGATOR_PLAYER__["5c7f360c"];Array.isArray(n)&&n.splice(0).forEach((function(n){return t.build(n)}))}}]),t}();function lt(t){return d(t)+""}function ft(t){var n=arguments.length>1&&void 0!==arguments[1]?arguments[1]:" ";return t&&t.length?t.map(lt).join(n):""}function st(t){if(!t)return"transparent";if(null==t.a||t.a>=1){var n=function(t){return 1===(t=parseInt(t).toString(16)).length?"0"+t:t},r=function(t){return t.charAt(0)===t.charAt(1)},e=n(t.r),i=n(t.g),o=n(t.b);return r(e)&&r(i)&&r(o)&&(e=e.charAt(0),i=i.charAt(0),o=o.charAt(0)),"#"+e+i+o}return"rgba("+t.r+","+t.g+","+t.b+","+t.a+")"}function ct(t){return t?"url(#"+t+")":"none"}!function(){for(var t=0,n=["ms","moz","webkit","o"],r=0;r<n.length&&!window.requestAnimationFrame;++r)window.requestAnimationFrame=window[n[r]+"RequestAnimationFrame"],window.cancelAnimationFrame=window[n[r]+"CancelAnimationFrame"]||window[n[r]+"CancelRequestAnimationFrame"];window.requestAnimationFrame||(window.requestAnimationFrame=function(n){var r=Date.now(),e=Math.max(0,16-(r-t)),i=window.setTimeout((function(){n(r+e)}),e);return t=r+e,i},window.cancelAnimationFrame=window.clearTimeout)}();var ht={f:null,i:function(t,n,r){return 0===t?n:1===t?r:{x:q(t,n.x,r.x),y:q(t,n.y,r.y)}},u:function(t,n){return function(r){var e=n(r);t.setAttribute("rx",lt(e.x)),t.setAttribute("ry",lt(e.y))}}},vt={f:null,i:function(t,n,r){return 0===t?n:1===t?r:{width:q(t,n.width,r.width),height:q(t,n.height,r.height)}},u:function(t,n){return function(r){var e=n(r);t.setAttribute("width",lt(e.width)),t.setAttribute("height",lt(e.height))}}};Object.freeze({M:2,L:2,Z:0,H:1,V:1,C:6,Q:4,T:2,S:4,A:7});var yt={},gt=null;function dt(t){var n=function(){if(gt)return gt;if("object"!==("undefined"==typeof document?"undefined":r(document))||!document.createElementNS)return{};var t=document.createElementNS("http://www.w3.org/2000/svg","svg");return t&&t.style?(t.style.position="absolute",t.style.opacity="0.01",t.style.zIndex="-9999",t.style.left="-9999px",t.style.width="1px",t.style.height="1px",gt={svg:t}):{}}().svg;if(!n)return function(t){return null};var e=document.createElementNS(n.namespaceURI,"path");e.setAttributeNS(null,"d",t),e.setAttributeNS(null,"fill","none"),e.setAttributeNS(null,"stroke","none"),n.appendChild(e);var i=e.getTotalLength();return function(t){var n=e.getPointAtLength(i*t);return{x:n.x,y:n.y}}}function pt(t){return yt[t]?yt[t]:yt[t]=dt(t)}function mt(t,n,r,e){if(!t||!e)return!1;var i=["M",t.x,t.y];if(n&&r&&(i.push("C"),i.push(n.x),i.push(n.y),i.push(r.x),i.push(r.y)),n?!r:r){var o=n||r;i.push("Q"),i.push(o.x),i.push(o.y)}return n||r||i.push("L"),i.push(e.x),i.push(e.y),i.join(" ")}function bt(t,n,r,e){var i=arguments.length>4&&void 0!==arguments[4]?arguments[4]:1,o=mt(t,n,r,e),u=pt(o);try{return u(i)}catch(t){return null}}function wt(t,n,r){return t+(n-t)*r}function At(t,n,r){var e=arguments.length>3&&void 0!==arguments[3]&&arguments[3],i={x:wt(t.x,n.x,r),y:wt(t.y,n.y,r)};return e&&(i.a=xt(t,n)),i}function xt(t,n){return Math.atan2(n.y-t.y,n.x-t.x)}function kt(t,n,r,e){var i=1-e;return i*i*t+2*i*e*n+e*e*r}function St(t,n,r,e){return 2*(1-e)*(n-t)+2*e*(r-n)}function _t(t,n,r,e){var i=arguments.length>4&&void 0!==arguments[4]&&arguments[4],o=bt(t,n,null,r,e);return o||(o={x:kt(t.x,n.x,r.x,e),y:kt(t.y,n.y,r.y,e)}),i&&(o.a=Ot(t,n,r,e)),o}function Ot(t,n,r,e){return Math.atan2(St(t.y,n.y,r.y,e),St(t.x,n.x,r.x,e))}function jt(t,n,r,e,i){var o=i*i;return i*o*(e-t+3*(n-r))+3*o*(t+r-2*n)+3*i*(n-t)+t}function Mt(t,n,r,e,i){var o=1-i;return 3*(o*o*(n-t)+2*o*i*(r-n)+i*i*(e-r))}function Pt(t,n,r,e,i){var o=arguments.length>5&&void 0!==arguments[5]&&arguments[5],u=bt(t,n,r,e,i);return u||(u={x:jt(t.x,n.x,r.x,e.x,i),y:jt(t.y,n.y,r.y,e.y,i)}),o&&(u.a=Et(t,n,r,e,i)),u}function Et(t,n,r,e,i){return Math.atan2(Mt(t.y,n.y,r.y,e.y,i),Mt(t.x,n.x,r.x,e.x,i))}function It(t,n,r){var e=arguments.length>3&&void 0!==arguments[3]&&arguments[3];if(Ft(n)){if(Nt(r))return _t(n,r.start,r,t,e)}else if(Ft(r)){if(n.end)return _t(n,n.end,r,t,e)}else{if(n.end)return r.start?Pt(n,n.end,r.start,r,t,e):_t(n,n.end,r,t,e);if(r.start)return _t(n,r.start,r,t,e)}return At(n,r,t,e)}function Rt(t,n,r){var e=It(t,n,r,!0);return e.a=function(t){return arguments.length>1&&void 0!==arguments[1]&&arguments[1]?t+Math.PI:t}(e.a)/m,e}function Ft(t){return!t.type||"corner"===t.type}function Nt(t){return null!=t.start&&!Ft(t)}var Tt=new N;var Bt={f:lt,i:B},qt={f:lt,i:L};function Lt(t,n,r){return t.map((function(t){return function(t,n,r){var e=t.v;if(!e||"g"!==e.t||e.s||!e.v||!e.r)return t;var i=r.getElementById(e.r),o=i&&i.querySelectorAll("stop")||[];return e.s=e.v.map((function(t,n){var r=o[n]&&o[n].getAttribute("offset");return{c:t,o:r=d(parseInt(r)/100)}})),delete e.v,t}(t,0,r)}))}var Ct={gt:"gradientTransform",c:{x:"cx",y:"cy"},rd:"r",f:{x:"x1",y:"y1"},to:{x:"x2",y:"y2"}};function Dt(t,n,e,i,o,u,a,l){return Lt(t,0,l),n=function(t,n,r){for(var e,i,o,u=t.length-1,a={},l=0;l<=u;l++)(e=t[l]).e&&(e.e=n(e.e)),e.v&&"g"===(i=e.v).t&&i.r&&(o=r.getElementById(i.r))&&(a[i.r]={e:o,s:o.querySelectorAll("stop")});return a}(t,i,l),function(i){var o=e(i,t,zt);if(!o)return"none";if("c"===o.t)return st(o.v);if("g"===o.t){if(!n[o.r])return ct(o.r);var u=n[o.r];return function(t,n){for(var r=t.s,e=r.length;e<n.length;e++){var i=r[r.length-1].cloneNode();i.id=Yt(i.id),t.e.appendChild(i),r=t.s=t.e.querySelectorAll("stop")}for(var o=0,u=r.length,a=n.length-1;o<u;o++)r[o].setAttribute("stop-color",st(n[Math.min(o,a)].c)),r[o].setAttribute("offset",n[Math.min(o,a)].o)}(u,o.s),Object.keys(Ct).forEach((function(t){if(void 0!==o[t])if("object"!==r(Ct[t])){var n,e="gt"===t?(n=o[t],Array.isArray(n)?"matrix("+n.join(" ")+")":""):o[t],i=Ct[t];u.e.setAttribute(i,e)}else Object.keys(Ct[t]).forEach((function(n){if(void 0!==o[t][n]){var r=o[t][n],e=Ct[t][n];u.e.setAttribute(e,r)}}))})),ct(o.r)}return"none"}}function zt(t,r,e){if(0===t)return r;if(1===t)return e;if(r&&e){var i=r.t;if(i===e.t)switch(r.t){case"c":return{t:i,v:z(t,r.v,e.v)};case"g":if(r.r===e.r){var o={t:i,s:Vt(t,r.s,e.s),r:r.r};return r.gt&&e.gt&&(o.gt=function(t,n,r){var e=n.length;if(e!==r.length)return T(t,n,r);for(var i=new Array(e),o=0;o<e;o++)i[o]=B(t,n[o],r[o]);return i}(t,r.gt,e.gt)),r.c?(o.c=C(t,r.c,e.c),o.rd=q(t,r.rd,e.rd)):r.f&&(o.f=C(t,r.f,e.f),o.to=C(t,r.to,e.to)),o}}if("c"===r.t&&"g"===e.t||"c"===e.t&&"g"===r.t){var u="c"===r.t?r:e,a="g"===r.t?n({},r):n({},e),l=a.s.map((function(t){return{c:u.v,o:t.o}}));return a.s="c"===r.t?Vt(t,l,a.s):Vt(t,a.s,l),a}}return T(t,r,e)}function Vt(t,n,r){if(n.length===r.length)return n.map((function(n,e){return Gt(t,n,r[e])}));for(var e=Math.max(n.length,r.length),i=[],o=0;o<e;o++){var u=Gt(t,n[Math.min(o,n.length-1)],r[Math.min(o,r.length-1)]);i.push(u)}return i}function Gt(t,n,r){return{o:L(t,n.o,r.o||0),c:z(t,n.c,r.c||{})}}function Yt(t){return t.replace(/-fill-([0-9]+)$/,(function(t,n){return"-fill-"+(+n+1)}))}var $t={fill:Dt,"fill-opacity":qt,stroke:Dt,"stroke-opacity":qt,"stroke-width":Bt,"stroke-dashoffset":{f:lt,i:B},"stroke-dasharray":{f:function(t){var n=arguments.length>1&&void 0!==arguments[1]?arguments[1]:" ";return t&&t.length>0&&(t=t.map((function(t){return d(t,4)}))),ft(t,n)},i:function(t,n,r){var e,i,o,u=n.length,a=r.length;if(u!==a)if(0===u)n=V(u=a,0);else if(0===a)a=u,r=V(u,0);else{var l=(o=(e=u)*(i=a)/function(t,n){for(var r;n;)r=n,n=t%n,t=r;return t||1}(e,i))<0?-o:o;n=G(n,Math.floor(l/u)),r=G(r,Math.floor(l/a)),u=a=l}for(var f=[],s=0;s<u;s++)f.push(d(q(t,n[s],r[s])));return f}},opacity:qt,transform:function(t,n,e,i){if(!(t=function(t,n){if(!t||"object"!==r(t))return null;var e=!1;for(var i in t)t.hasOwnProperty(i)&&(t[i]&&t[i].length?(t[i].forEach((function(t){t.e&&(t.e=n(t.e))})),e=!0):delete t[i]);return e?t:null}(t,i)))return null;var o=function(r,i,o){var u=arguments.length>3&&void 0!==arguments[3]?arguments[3]:null;return t[r]?e(i,t[r],o):n&&n[r]?n[r]:u};return n&&n.a&&t.o?function(n){var r=e(n,t.o,Rt);return Tt.recomposeSelf(r,o("r",n,B,0)+r.a,o("k",n,C),o("s",n,C),o("t",n,C)).toString()}:function(t){return Tt.recomposeSelf(o("o",t,It,null),o("r",t,B,0),o("k",t,C),o("s",t,C),o("t",t,C)).toString()}},r:Bt,"#size":vt,"#radius":ht,_:function(t,n){if(Array.isArray(t))for(var r=0;r<t.length;r++)this[t[r]]=n;else this[t]=n}},Ut=function(t){!function(t,n){if("function"!=typeof n&&null!==n)throw new TypeError("Super expression must either be null or a function");t.prototype=Object.create(n&&n.prototype,{constructor:{value:t,writable:!0,configurable:!0}}),n&&l(t,n)}(u,t);var n,r,i=(n=u,r=f(),function(){var t,e=a(n);if(r){var i=a(this).constructor;t=Reflect.construct(e,arguments,i)}else t=e.apply(this,arguments);return c(this,t)});function u(){return e(this,u),i.apply(this,arguments)}return o(u,null,[{key:"build",value:function(t){var n=h(a(u),"build",this).call(this,t,$t);if(!n)return null;n.el,n.options,function(t,n,r){t.play()}(n.player)}}]),u}(at);return Ut.init(),Ut}));
(function(s,i,o,w){w[o]=w[o]||{};w[o][s]=w[o][s]||[];w[o][s].push(i);})('5c7f360c',{"root":"eb7Hc0iIAwy1","animations":[{"elements":{"eb7Hc0iIAwy39":{"transform":{"data":{"o":{"x":223.802425,"y":125.016991,"type":"corner"},"t":{"x":-223.802425,"y":-125.016991}},"keys":{"s":[{"t":600,"v":{"x":1,"y":1}},{"t":3000,"v":{"x":1.051938,"y":1.150109}}]}}},"eb7Hc0iIAwy40":{"transform":{"data":{"t":{"x":-216.594067,"y":-57.885502}},"keys":{"o":[{"t":700,"v":{"x":216.594067,"y":57.885502,"type":"corner"}},{"t":3000,"v":{"x":267.666507,"y":72.537404,"type":"corner"}}],"r":[{"t":100,"v":0},{"t":1100,"v":26.14467},{"t":3000,"v":5.849533}],"s":[{"t":900,"v":{"x":0.996052,"y":1.159893}},{"t":1600,"v":{"x":1.062996,"y":1.509484}},{"t":2200,"v":{"x":1.031231,"y":1.389666}},{"t":3000,"v":{"x":0.685112,"y":1.141033}}]}}}},"s":"MRDA1Mzg5MzA3MjgzODXA2ZlU4Mjc3N2Q3YzMFwNDg0MTNlM2UzZTNhVMzA3Mjc3ODA3MzcxOWDI3N003ZDdjMzA0ODJNmSjNhMzA3NzgyNzMX4MDZmODI3N0U3ZDdjLODEzMDQ4M2YzYVAzMDDc0Nzc3YVg3YTMwNDVgzZjNhMzA2ZjdhODIY3MzgwN2M2ZjgyNzMzUMEc0ODc0NmZXTDdhODDE3M00zYTMwODE3ZTVczNzM3MjMwUDQ4VjNLmOGI/"}],"options":"MDDAxMDg4MmY4MDgxNmCVWN2Y4MTJmNDcyZjcC5SzdjTDZlNzFUMmY4MYQ|"},'__SVGATOR_PLAYER__',window)]]></script></svg>