<svg xmlns="http://www.w3.org/2000/svg" xmlns:xlink="http://www.w3.org/1999/xlink" width="130" height="130" viewBox="0 0 130 130"><defs><style>.a,.b{fill:#fff;}.a{stroke:#707070;}.c{clip-path:url(#a);}.d{fill:#33c1db;}.e{clip-path:url(#b);}.f{fill:#e96524;}.g{fill:#808251;}.h{fill:#ebe8e3;}.i{fill:#715f51;}.j{fill:#ff6f00;}.k{fill:#c44221;}.l{fill:#4d412b;}.m{fill:#ffbd00;}.n{fill:#3f3321;}.o{fill:url(#c);}.p{fill:#ec6117;}.q{fill:#a12814;opacity:0.21;}.ad,.ah,.q,.v,.w,.z{isolation:isolate;}.r{fill:url(#d);}.s{fill:url(#e);}.t{fill:#fefefe;}.u{fill:url(#f);}.v{fill:#fa9785;opacity:0.36;}.w{fill:#fdc662;opacity:0.9;}.x{fill:url(#g);}.y{fill:url(#h);}.ac,.z{fill:none;stroke-linecap:round;}.z{stroke:#1a1a1a;stroke-width:2px;opacity:0.53;}.aa{fill:#616ca5;}.ab{fill:#c5c2c2;}.ac{stroke:#e9c785;stroke-linejoin:round;stroke-width:3px;}.ad{fill:#d9d9d9;opacity:0.97;}.ae{fill:url(#i);}.af{fill:url(#j);}.ag{fill:url(#k);}.ah{fill:#ff0;opacity:0.25;mix-blend-mode:overlay;}</style><clipPath id="a"><ellipse class="a" cx="65" cy="65" rx="65" ry="65"/></clipPath><clipPath id="b"><rect class="b" width="131.903" height="131.902"/></clipPath><linearGradient id="c" y1="0.5" x2="1" y2="0.5" gradientUnits="objectBoundingBox"><stop offset="0" stop-color="#fe9a10"/><stop offset="1" stop-color="#fb6d00"/></linearGradient><linearGradient id="d" x1="0.753" y1="0.02" x2="0.359" y2="0.846" xlink:href="#c"/><linearGradient id="e" x1="-4.569" y1="2.394" x2="-4.575" y2="2.387" gradientUnits="objectBoundingBox"><stop offset="0" stop-color="#fff3d5"/><stop offset="1" stop-color="#ffefc9"/></linearGradient><linearGradient id="f" x1="0.512" y1="0.157" x2="0.475" y2="0.703" gradientUnits="objectBoundingBox"><stop offset="0" stop-color="#fff82d"/><stop offset="1" stop-color="#ffdc34"/></linearGradient><radialGradient id="g" cx="0.5" cy="0.5" r="0.425" gradientTransform="translate(-0.251) scale(1.502 1)" gradientUnits="objectBoundingBox"><stop offset="0" stop-color="#cf971d"/><stop offset="1" stop-color="#6b410f"/></radialGradient><radialGradient id="h" cx="1.396" cy="-0.53" r="1.284" gradientTransform="translate(-0.369) scale(1.739 1)" xlink:href="#g"/><radialGradient id="i" cx="1.13" cy="0.094" r="2.735" gradientTransform="matrix(0.718, -0.198, 0.145, 0.98, 3.515, -0.061)" gradientUnits="objectBoundingBox"><stop offset="0" stop-color="#f3643f"/><stop offset="1" stop-color="#a9386a"/></radialGradient><radialGradient id="j" cx="0.5" cy="0.5" r="0.475" gradientTransform="translate(-0.058) scale(1.116 1)" xlink:href="#g"/><radialGradient id="k" cx="1.969" cy="-0.899" r="1.989" gradientTransform="translate(-0.354) scale(1.708 1)" xlink:href="#g"/></defs><g class="c"><g transform="translate(0 -1.268)"><g transform="translate(0 0)"><rect class="d" width="131.903" height="131.902"/><g class="e"><g transform="translate(-23.834 0.446)"><path class="f" d="M301.011,583.1s4.119,33.236,4.872,39c1.606,2.618,10.451,2.828,13.457-.964l-3.235-46.6Z" transform="translate(-197.15 -408.536)"/><path class="f" d="M269.564,580.01s-4.118,33.236-4.872,39c-1.606,2.618-10.45,2.828-13.457-.964l3.236-46.6Z" transform="translate(-175.193 -407.171)"/><path class="b" d="M304.706,627.222c.572,4.022,2.448,14.692,2.807,17.428,1.607,2.618,10.451,2.828,13.457-.964l-.866-18.039c-2.057,3.732-12.082,4.99-15.4,1.575" transform="translate(-198.78 -431.08)"/><path class="b" d="M267.5,624.128c-.572,4.021-2.448,14.693-2.807,17.428-1.606,2.618-10.45,2.828-13.457-.964l.866-18.04c2.057,3.733,12.082,4.99,15.4,1.574" transform="translate(-175.194 -429.714)"/><path class="g" d="M304.8,658.157c1.616,3.642,17.405,6.2,26.621,1.453,2.912-8.955-2.27-14.982-8.133-16.057-7.281-1.333-11.581,1.813-14.689,7.356-1.159.9-1.605-.942-2.338-5.49-2.083,1.966-2.337,8.225-1.461,12.738" transform="translate(-198.614 -438.844)"/><path class="g" d="M258.193,655.064c-1.616,3.642-17.406,6.2-26.622,1.453-2.912-8.956,2.271-14.982,8.133-16.055,7.282-1.335,11.582,1.814,14.689,7.354,1.159.9,1.605-.942,2.338-5.49,2.083,1.966,2.337,8.226,1.462,12.739" transform="translate(-166.151 -437.48)"/><path class="h" d="M323.208,658.316a14.607,14.607,0,0,1-2.644-.323c-1.029-5.482.091-10.422,6.635-12.731a9.792,9.792,0,0,1,8.334,1.558,11.207,11.207,0,0,1,3.726,8.99c-5.835,1.461-11.493,2.57-16.052,2.507" transform="translate(-205.628 -439.576)"/><path class="h" d="M246.8,655.221a14.613,14.613,0,0,0,2.644-.323c1.029-5.483-.092-10.422-6.635-12.732a9.786,9.786,0,0,0-8.333,1.559,11.208,11.208,0,0,0-3.727,8.99c5.835,1.46,11.494,2.567,16.051,2.507" transform="translate(-166.149 -438.211)"/><path class="b" d="M325.877,656.594a12.79,12.79,0,0,1-2.317-.281c-.9-4.8.081-9.129,5.814-11.155a8.57,8.57,0,0,1,7.3,1.368,9.816,9.816,0,0,1,3.267,7.876c-5.114,1.278-10.067,2.247-14.063,2.194" transform="translate(-206.968 -439.55)"/><path class="b" d="M245.995,653.5a12.763,12.763,0,0,0,2.317-.282c.9-4.8-.08-9.129-5.813-11.155a8.57,8.57,0,0,0-7.3,1.367,9.814,9.814,0,0,0-3.266,7.875c5.111,1.278,10.067,2.248,14.062,2.195" transform="translate(-166.672 -438.184)"/><path class="i" d="M304.806,666.2c1.616,3.642,17.405,6.2,26.621,1.453a16.308,16.308,0,0,0,.83-4.536c-5.839,1.463-11.5,2.57-16.061,2.507-3.695-.047-9.806-2.416-11.863-4.148a27.421,27.421,0,0,0,.472,4.724" transform="translate(-198.616 -446.882)"/><path class="j" d="M338.007,470.265l21.225,13.2,2.62,4.068-.163,3.106-19.97,20.644L335.7,506.3l14.029-17.1-20.187-8.311Z" transform="translate(-209.737 -362.538)"/><path class="i" d="M258.2,663.1c-1.616,3.642-17.406,6.2-26.622,1.453a16.287,16.287,0,0,1-.83-4.533c5.839,1.463,11.5,2.57,16.06,2.507,3.7-.05,9.807-2.418,11.863-4.15a27.409,27.409,0,0,1-.472,4.724" transform="translate(-166.154 -445.517)"/><path class="j" d="M124.435,463.242c-.838,33.13,28.439,56.575,60.354,44.442,0,0,13.05-4.623,22.06-15.235,5.629-6.63-3.305-9.153-3.305-9.153s-14.709,10.518-28.51,4.626c-5.436-2.321-6.986-17.574-8.26-25.265-4.036-24.343-14.186-28.04-14.186-28.04s3.918,8.441.831,9.815c0,0-10.424-22.418-36.82-25.656,0,0,7.856,10.337,8.441,14.79,0,0-5.983-3.434-9.865-2.606,12.221,9.807,11.611,22.9,9.26,32.282" transform="translate(-115.175 -339.825)"/><path class="k" d="M135.781,442.675c.188,7.979,9.073,15.863,12.606,19.435.422-4.389,4.4-9.595,3.91-12.3,5.346,2.375,14.407,13.928,13.96,11.274-4.044-24.059-14.008-27.42-14.008-27.42s3.873,8.268.848,9.724c0,0-10.3-21.95-36.192-24.353,0,0,7.742,10.027,8.331,14.43,0,0-5.88-3.227-9.683-2.285,9.388,7.316,12.013,17.46,9.787,29,3.072-5.627,9.124-12.69,10.44-17.5" transform="translate(-115.342 -339.939)"/><path class="l" d="M272.793,555.02c.69,2.571-2.034,8-2.649,14.672a90.224,90.224,0,0,1-2.236,13.984s-14.246-.546-23.551-5.984c0,0,6.483-29.6,6.148-31.13s22.289,0,22.289,0" transform="translate(-172.159 -395.895)"/><path class="m" d="M324.058,462.4c-3.505-1.426-12.835,1.147-13.252,8-.383,6.3,20.661,13.37,22.625,14.394,2.071,1.079,6.255-10.057,6.143-14.407" transform="translate(-201.469 -358.901)"/><path class="l" d="M288.8,546.655c-1.219,4.548,1.354,28.005,3.606,36.343,0,0,16.294-.547,25.6-5.984,0,0-8.018-30.754-7.686-32.28s-14.987,1.921-14.987,1.921" transform="translate(-191.626 -395.215)"/><path class="n" d="M287.441,561.844c-.53-.227-4.5-1.383-5.214-2.192,1.81,2.4,3.778,2.356,4.771,3.84a169.7,169.7,0,0,0,2.647,25.5,21.972,21.972,0,0,0,18.965-3.7c-5.774,2.794-12.958,3.6-17.745,2.2-1.449-3.7-3.423-25.657-3.423-25.657" transform="translate(-188.864 -401.968)"/><path class="m" d="M252.553,451.361s-3.988,51.495-3.12,56.106,55.178,2.69,51.268-1.921-.175-49.189-11.3-52.263S252.553,451.361,252.553,451.361Z" transform="translate(-174.344 -354.106)"/><path class="o" d="M333.841,299.755s14.4-17.1,17.9-17.65c0,0-.781-4.211,1.051-4.369s2.308,3.4,2.308,3.4,1.415-4.115,2.93-3.5-.352,5.081-.352,5.081,3.344-2.154,3.485.89c.047,1.032-3.568,2.382-3.568,2.382s4.74,15.424-5.758,34.7S333.841,299.755,333.841,299.755Z" transform="translate(-211.632 -277.538)"/><path class="p" d="M368.163,288.686a22.9,22.9,0,0,0-.643-2.941s3.593-1.29,3.537-2.3c-.165-2.98-3.481-.9-3.481-.9s1.826-4.351.311-4.97-2.892,3.4-2.892,3.4-.5-3.481-2.327-3.34-1.011,4.266-1.011,4.266a26.79,26.79,0,0,0-3.19,1.771l-2.944,2.921,5.984-1.351,1.186,4.3,3.16-2.434,2.476,6.214Z" transform="translate(-221.196 -277.511)"/><path class="q" d="M348.141,319.006s10.046-12.957,12.279-10.583.143,15.09-3.719,22.208S348.141,319.006,348.141,319.006Z" transform="translate(-217.94 -291.019)"/><g transform="translate(49.34 4.23)"><path class="j" d="M232.66,308.217s-14.386-17.3-18.162-17.977c0,0,1.183-4.084-.8-4.313s-2.787,3.226-2.787,3.226-1.223-4.079-2.926-3.535-.013,4.981-.013,4.981-3.482-2.241-3.875.729c-.133,1.007,3.71,2.473,3.71,2.473s-6.387,14.886,3.568,34.156S232.66,308.217,232.66,308.217Z" transform="translate(-203.736 -285.295)"/><path class="p" d="M206.357,297.122a24.274,24.274,0,0,1,1-3.151s-4.038-1.539-3.89-2.628c.446-3.21,4.1-.828,4.1-.828s-1.736-4.772.068-5.377,3.049,3.785,3.049,3.785.881-3.738,2.977-3.513.8,4.648.8,4.648a5.365,5.365,0,0,1,1.726.757l3.371,3.088-4.908-.654-1.987,4.148-4.22-1.413-2.734,7.131Z" transform="translate(-203.459 -285.079)"/><path class="q" d="M227.369,322.811s-8.839-13.028-11.394-10.488-1.019,17.121,2.755,25.471S227.369,322.811,227.369,322.811Z" transform="translate(-208.424 -296.952)"/></g><path class="j" d="M303.207,309.506s-6.864-5.62-2.521-7.031c2.224-.722-4.581-.809-6.51,1.478,0,0-1.746-4.681,1.455-6.249-3.392-.347-10.452,1.36-13.032,5.53,0,0,3.877-10.271,8.328-10.169-11.237-.258-17.384,10.154-17.451,11.818-.235,5.848,26.363,11.628,29.731,4.622" transform="translate(-185.004 -284.37)"/><path class="r" d="M224.577,364.729c1.1,23.516,9.444,23.193,31.94,24.935s42.243,4.958,46.577-18.179c4.55-24.289,2.51-59.186-35.63-62.21-44.248-3.516-50.135,31.065-44.771,55.986" transform="translate(-161.874 -291.413)"/><path class="s" d="M238,375.289s-9.958-28.6,10.156-39.748c9.08-5.033,18.258,2.25,19.355,3.557,0,0,13.612-16.934,28.849.591a23.306,23.306,0,0,1,6.111,12.778c1.392,7.884,2.346,20.146-3.916,24.662C289.021,384,238,375.289,238,375.289Z" transform="translate(-168.266 -301.434)"/><ellipse class="t" cx="0.676" cy="0.63" rx="0.676" ry="0.63" transform="matrix(0.253, -0.967, 0.967, 0.253, 85.726, 64.843)"/><path class="u" d="M204.8,394.055s12.979,4.43,15.221,6.659c0,0,19.65-6.768,32.183-1.888,0,0,25.011-7.679,33.087,1.237,0,0,10.707-7.187,15.625-6.755l-2.211,7.608,5.811-.467-3.108,6.716,5.813.429s-16.454,28.216-57.589,26.557-48.8-23.54-50.153-25.772,5.811-.467,5.811-.467l-4.941-7.583s5.364-.466,7.154.425S204.8,394.055,204.8,394.055Z" transform="translate(-152.286 -328.582)"/><ellipse class="v" cx="7.274" cy="2.06" rx="7.274" ry="2.06" transform="translate(68.439 75.841) rotate(-8.859)"/><ellipse class="w" cx="2.451" cy="6.69" rx="2.451" ry="6.69" transform="translate(118.126 76.283) rotate(-81)"/><path class="x" d="M258.161,367.768a6,6,0,0,1,6.086,2.1c-1.3-2.723-3.655-4.62-7.236-3.937-8.365,1.592-3.748,16.682-3.748,16.682s.978,1.466,1.435,1.581C253.781,380.253,251.5,369.035,258.161,367.768Z" transform="translate(-175.527 -316.455)"/><path class="t" d="M255.245,385.005s-4.957-15.22,3.409-16.806,10.07,10.788,7.061,14.931S255.245,385.005,255.245,385.005Z" transform="translate(-176.319 -317.453)"/><path class="y" d="M271.654,378.526c.452,3.2-.718,6.09-2.617,6.462-2.239.439-3.808-1.916-4.261-5.112s.71-6.728,2.609-7.1S271.2,375.329,271.654,378.526Z" transform="translate(-181.123 -319.519)"/><path class="z" d="M275.962,412.389s5.056,10.376,16.678,4.915" transform="translate(-186.101 -337.008)"/><path class="b" d="M310.478,518.569l26.109.99-15.8,4.774Z" transform="translate(-201.326 -383.846)"/><path class="aa" d="M174.35,453.935H241.9l14.419,43.809H186.492Z" transform="translate(-141.278 -355.335)"/><path class="ab" d="M293.5,453.935h4.432l14.277,43.051-3.437.758Z" transform="translate(-193.835 -355.335)"/><path class="ac" d="M327.77,346.125s-4.443-4.8-9.252-2" transform="translate(-204.873 -306.509)"/><path class="ac" d="M261.034,350.6s-6.272-1.853-8.976,3.008" transform="translate(-175.556 -309.599)"/><path class="ab" d="M321.84,522.978l19.626-2.69v2.69L321.2,526.92Z" transform="translate(-206.055 -384.604)"/><path class="j" d="M340.847,532.635s-5.826,2.717-3.358,4.89,8.753,9.925,12.846,10.355,2.42-3.316,2.42-3.316l-8.6-6.689Z" transform="translate(-212.972 -390.05)"/><path class="ad" d="M231.217,488.382l-2.69-12.684a1.809,1.809,0,0,1,3.538-.751h0l1.521,7.169,5.2-8.32a1.73,1.73,0,0,1,2.934,1.835l-3.2,5.117,6.175,4.17a1.664,1.664,0,0,1-1.862,2.758l-6.078-4.1-2.057,3.29c-.026.041-.054.081-.082.12l.137.648a1.808,1.808,0,1,1-3.538.751Z" transform="translate(-165.159 -363.737)"/><rect class="j" width="3.064" height="5.106" rx="1.532" transform="translate(59.872 139.28) rotate(-38.016)"/><path class="j" d="M230.693,515.845a1.526,1.526,0,0,1,1.775,1.093l1.42,7.072a1.372,1.372,0,0,1-1.166,1.552l-.075.009a1.527,1.527,0,0,1-1.775-1.09l-1.42-7.074a1.374,1.374,0,0,1,1.166-1.553Z" transform="translate(-165.578 -382.631)"/><path class="j" d="M237.366,512.256a1.526,1.526,0,0,1,1.775,1.114l1.776,9.022a1.4,1.4,0,0,1-1.181,1.585l-.062.008a1.526,1.526,0,0,1-1.775-1.115l-1.776-9.022a1.4,1.4,0,0,1,1.181-1.585Z" transform="translate(-168.521 -381.048)"/><rect class="j" width="3.063" height="10.21" rx="1.532" transform="matrix(0.996, -0.087, 0.087, 0.996, 72.234, 132.163)"/><rect class="j" width="2.267" height="7.557" rx="1.134" transform="matrix(0.438, -0.899, 0.899, 0.438, 133.675, 153.41)"/><path class="j" d="M253.462,518.638h0a1.022,1.022,0,0,1,.909,1.123l-.536,5.079a1.022,1.022,0,0,1-1.123.909h0a1.022,1.022,0,0,1-.909-1.123l.536-5.079A1.022,1.022,0,0,1,253.462,518.638Z" transform="translate(-175.441 -383.873)"/><path class="j" d="M225.965,527.827s.234,1.544,3.577,1.93a26.6,26.6,0,0,0,9.785-.386c3.689-.838,3.276-3.359,3.276-3.359l-5.236-2.664-7.827.984s.234,2.577-.979,3.069A6.965,6.965,0,0,1,225.965,527.827Z" transform="translate(-164.046 -385.954)"/><path class="j" d="M376.239,493.71a5.13,5.13,0,0,1,5.059,5.185c-.142,2.71-5.009,6.416-7.943,6.262s-2.831-4.109-2.689-6.819A5.13,5.13,0,0,1,376.239,493.71Z" transform="translate(-227.851 -372.876)"/><rect class="j" width="3.023" height="8.313" rx="1.512" transform="translate(130.069 147.685) rotate(-65)"/><g transform="translate(95.463 65.263)"><path class="ae" d="M297.015,397.066c.055,1.634-3.5,5.235-5.343,5.3-1.928.064-5.631-3.292-5.686-4.926s2.369-3.042,5.415-3.145S296.96,395.432,297.015,397.066Z" transform="translate(-285.985 -394.286)"/><path class="b" d="M300.574,397.6c-.036.486-.83.824-1.773.758s-1.678-.513-1.642-1,.83-.824,1.773-.758S300.611,397.115,300.574,397.6Z" transform="translate(-290.914 -395.304)"/></g><g transform="translate(81.501 55.711)"><path class="b" d="M264.361,381.231a2.187,2.187,0,1,1,.679-3.017A2.187,2.187,0,0,1,264.361,381.231Z" transform="translate(-261.004 -377.195)"/><path class="b" d="M265.62,387.8a.882.882,0,1,1,.274-1.217A.883.883,0,0,1,265.62,387.8Z" transform="translate(-262.443 -381.154)"/></g><g transform="translate(107.241 48.127)"><path class="af" d="M315.647,365.71a6,6,0,0,1,5.331,3.611c-.544-2.965-2.331-5.409-5.966-5.679-8.491-.633-7.947,15.136-7.947,15.136s.238.155.649.384C307.854,375.116,308.882,365.2,315.647,365.71Z" transform="translate(-307.059 -363.624)"/><path class="t" d="M308.467,381.567s-.838-15.982,7.651-15.344,6.925,13.029,2.945,16.249S308.467,381.567,308.467,381.567Z" transform="translate(-307.67 -364.762)"/><path class="ag" d="M327.87,379.431c-.393,3.2-2.272,5.694-4.2,5.56-2.276-.156-3.179-2.837-2.788-6.042s2.431-6.313,4.361-6.18S328.262,376.227,327.87,379.431Z" transform="translate(-313.115 -367.656)"/><g transform="translate(6.355 5.707)"><path class="b" d="M321.787,377.871a2.187,2.187,0,1,1,.679-3.018A2.188,2.188,0,0,1,321.787,377.871Z" transform="translate(-318.43 -373.835)"/><path class="b" d="M322.62,386.3a.882.882,0,1,1,.274-1.217A.883.883,0,0,1,322.62,386.3Z" transform="translate(-319.681 -378.615)"/></g></g><path class="ah" d="M322.814,320.278c-.393,1.356-3.895,1.535-7.822.4s-6.792-3.156-6.4-4.513,3.894-1.535,7.822-.4S323.206,318.921,322.814,320.278Z" transform="translate(-200.479 -294.056)"/></g></g></g></g></g></svg>