<svg xmlns="http://www.w3.org/2000/svg" width="117.5" height="25" viewBox="0 0 117.5 25"><defs><style>.a{fill:#ed2939;}.b{fill:#fff;}.c{fill:#020202;font-size:14px;font-family:Linotte-Regular;}</style></defs><g transform="translate(-322 -579)"><g transform="translate(-8491 2532)"><rect class="a" width="37.676" height="12.324" transform="translate(8813 -1953)"/><rect class="b" width="37.676" height="12.676" transform="translate(8813 -1940.676)"/><path class="b" d="M43.53,23.312A4.459,4.459,0,0,1,47.8,18.858a4.718,4.718,0,1,0,0,8.909,4.459,4.459,0,0,1-4.274-4.454" transform="translate(8774.945 -1970.134)"/><path class="b" d="M86.533,53.643l-.641-.492-.641.492.247-.793-.643-.489.793,0,.243-.794.244.794.794,0-.643.489Z" transform="translate(8735.243 -2000.351)"/><path class="b" d="M146.657,53.643l-.641-.492-.641.492.247-.793-.643-.489.793,0,.243-.794.244.794.794,0-.643.489Z" transform="translate(8680.148 -2000.351)"/><path class="b" d="M116.626,31.329l-.641-.492-.641.492.247-.793-.643-.489.793,0,.243-.794.244.794.794,0-.643.489Z" transform="translate(8707.668 -1979.904)"/><path class="b" d="M97.783,89.346l-.641-.492-.641.492.247-.793-.643-.489.793,0,.243-.794.244.794.794,0-.643.489Z" transform="translate(8724.935 -2033.067)"/><path class="b" d="M135.407,89.346l-.641-.492-.641.492.247-.793-.643-.489.793,0,.243-.794.244.794.794,0-.643.489Z" transform="translate(8690.458 -2033.067)"/></g><text class="c" transform="translate(376.5 596)"><tspan x="0" y="0">Singapore</tspan></text></g></svg>