<svg xmlns="http://www.w3.org/2000/svg" width="85.5" height="25" viewBox="0 0 85.5 25"><defs><style>.a{fill:#f93;}.b{fill:#fff;}.c{fill:#128807;}.d{fill:#008;}.e{fill:#020202;font-size:14px;font-family:Linotte-Regular;}</style></defs><g transform="translate(-1030 -579)"><g transform="translate(-8111 2761)"><rect class="a" width="38" height="25" transform="translate(9141 -2182)"/><rect class="b" width="38" height="9" transform="translate(9141 -2174)"/><rect class="c" width="38" height="8" transform="translate(9141 -2165)"/><path class="d" d="M188.364,110A3.364,3.364,0,1,1,185,113.364,3.364,3.364,0,0,1,188.364,110" transform="translate(8971.538 -2282.763)"/><path class="b" d="M192.944,115A2.944,2.944,0,1,1,190,117.944,2.944,2.944,0,0,1,192.944,115" transform="translate(8966.959 -2287.342)"/><path class="d" d="M218.589,143a.589.589,0,1,1-.589.589.589.589,0,0,1,.589-.589" transform="translate(8941.313 -2312.987)"/><path class="d" d="M258.117,152.819a.147.147,0,1,1-.165.127.147.147,0,0,1,.165-.127" transform="translate(8904.723 -2321.979)"/><path class="d" d="M223.9,156.607l.1-1.766-.1-.841-.1.841Z" transform="translate(8936.002 -2323.062)"/><path class="d" d="M255.789,161.654a.147.147,0,1,1-.192.08.147.147,0,0,1,.192-.08" transform="translate(8906.89 -2330.063)"/><path class="d" d="M215.941,156.382l.555-1.68.12-.839-.315.786Z" transform="translate(8943.199 -2322.937)"/><path class="d" d="M251.254,169.587a.147.147,0,1,1-.206.027.147.147,0,0,1,.206-.027" transform="translate(8911.073 -2337.31)"/><path class="d" d="M207.5,155.722l.971-1.479.333-.779-.508.678Z" transform="translate(8950.931 -2322.571)"/><path class="d" d="M244.82,176.075a.147.147,0,1,1-.206-.027.147.147,0,0,1,.206.027" transform="translate(8916.991 -2343.228)"/><path class="d" d="M200.251,154.672l1.32-1.178.523-.666-.666.523Z" transform="translate(8957.569 -2321.989)"/><path class="d" d="M236.927,180.676a.147.147,0,1,1-.192-.08.147.147,0,0,1,.192.08" transform="translate(8924.238 -2347.411)"/><path class="d" d="M194.689,153.3l1.58-.8.678-.508-.779.333Z" transform="translate(8962.664 -2321.23)"/><path class="d" d="M228.111,183.078a.147.147,0,1,1-.165-.127.147.147,0,0,1,.165.127" transform="translate(8932.321 -2349.577)"/><path class="d" d="M191.193,151.711l1.732-.36.786-.315-.839.12Z" transform="translate(8965.866 -2320.347)"/><path class="d" d="M218.975,183.116a.147.147,0,1,1-.127-.165.147.147,0,0,1,.127.165" transform="translate(8940.689 -2349.577)"/><path class="d" d="M190,148.9l1.766.1.841-.1-.841-.1Z" transform="translate(8966.959 -2318.299)"/><path class="d" d="M210.139,180.789a.147.147,0,1,1-.08-.192.147.147,0,0,1,.08.192" transform="translate(8948.773 -2347.412)"/><path class="d" d="M191.193,140.941l1.68.555.839.12-.786-.315Z" transform="translate(8965.866 -2311.102)"/><path class="d" d="M202.208,176.254a.147.147,0,1,1-.027-.206.147.147,0,0,1,.027.206" transform="translate(8956.02 -2343.228)"/><path class="d" d="M194.689,132.5l1.479.971.779.333-.678-.508Z" transform="translate(8962.664 -2303.37)"/><path class="d" d="M195.719,169.821a.147.147,0,1,1,.027-.206.147.147,0,0,1-.027.206" transform="translate(8961.938 -2337.31)"/><path class="d" d="M200.251,125.251l1.178,1.32.666.523-.523-.666Z" transform="translate(8957.569 -2296.731)"/><path class="d" d="M191.118,161.927a.147.147,0,1,1,.08-.192.147.147,0,0,1-.08.192" transform="translate(8966.121 -2330.063)"/><path class="d" d="M207.5,119.689l.8,1.58.508.678-.333-.779Z" transform="translate(8950.931 -2291.637)"/><path class="d" d="M188.716,153.111a.147.147,0,1,1,.127-.165.147.147,0,0,1-.127.165" transform="translate(8968.287 -2321.979)"/><path class="d" d="M215.941,116.193l.36,1.732.315.786-.12-.839Z" transform="translate(8943.199 -2288.435)"/><path class="d" d="M188.677,143.975a.147.147,0,1,1,.165-.127.147.147,0,0,1-.165.127" transform="translate(8968.287 -2313.612)"/><path class="d" d="M223.9,115l-.1,1.766.1.841.1-.841Z" transform="translate(8936.002 -2287.342)"/><path class="d" d="M191.005,135.139a.147.147,0,1,1,.192-.08.147.147,0,0,1-.192.08" transform="translate(8966.121 -2305.528)"/><path class="d" d="M226.71,116.193l-.555,1.68-.12.839.315-.786Z" transform="translate(8933.954 -2288.435)"/><path class="d" d="M195.54,127.207a.147.147,0,1,1,.206-.027.147.147,0,0,1-.206.027" transform="translate(8961.938 -2298.281)"/><path class="d" d="M228.3,119.689l-.971,1.479-.333.779.508-.678Z" transform="translate(8933.07 -2291.637)"/><path class="d" d="M201.974,120.719a.147.147,0,1,1,.206.027.147.147,0,0,1-.206-.027" transform="translate(8956.02 -2292.364)"/><path class="d" d="M229.672,125.251l-1.32,1.178-.523.666.666-.523Z" transform="translate(8932.312 -2296.731)"/><path class="d" d="M209.867,116.118a.147.147,0,1,1,.192.08.147.147,0,0,1-.192-.08" transform="translate(8948.773 -2288.179)"/><path class="d" d="M230.722,132.5l-1.58.8-.678.508.779-.333Z" transform="translate(8931.729 -2303.37)"/><path class="d" d="M218.683,113.715a.147.147,0,1,1,.165.127.147.147,0,0,1-.165-.127" transform="translate(8940.689 -2286.013)"/><path class="d" d="M231.382,140.941l-1.732.36-.786.315.839-.12Z" transform="translate(8931.364 -2311.102)"/><path class="d" d="M227.819,113.677a.147.147,0,1,1,.127.165.147.147,0,0,1-.127-.165" transform="translate(8932.321 -2286.013)"/><path class="d" d="M231.607,148.9l-1.766-.1-.841.1.841.1Z" transform="translate(8931.238 -2318.299)"/><path class="d" d="M236.655,116.005a.147.147,0,1,1,.08.192.147.147,0,0,1-.08-.192" transform="translate(8924.238 -2288.179)"/><path class="d" d="M231.382,151.711l-1.68-.555-.839-.12.786.315Z" transform="translate(8931.364 -2320.347)"/><path class="d" d="M244.587,120.54a.147.147,0,1,1,.027.206.147.147,0,0,1-.027-.206" transform="translate(8916.991 -2292.364)"/><path class="d" d="M230.722,153.3l-1.479-.971-.779-.333.678.508Z" transform="translate(8931.729 -2321.23)"/><path class="d" d="M251.075,126.974a.147.147,0,1,1-.027.206.147.147,0,0,1,.027-.206" transform="translate(8911.073 -2298.281)"/><path class="d" d="M229.672,154.672l-1.178-1.32-.666-.523.523.666Z" transform="translate(8932.312 -2321.989)"/><path class="d" d="M255.676,134.867a.147.147,0,1,1-.08.192.147.147,0,0,1,.08-.192" transform="translate(8906.89 -2305.527)"/><path class="d" d="M228.3,155.722l-.8-1.58-.508-.678.333.779Z" transform="translate(8933.07 -2322.571)"/><path class="d" d="M258.078,143.683a.147.147,0,1,1-.127.165.147.147,0,0,1,.127-.165" transform="translate(8904.724 -2313.612)"/><path class="d" d="M226.71,156.382l-.36-1.732-.315-.786.12.839Z" transform="translate(8933.954 -2322.937)"/></g><text class="e" transform="translate(1084.5 596)"><tspan x="0" y="0">India</tspan></text></g></svg>